<?xml version="1.0" encoding="UTF-8" standalone="no"?>
<!DOCTYPE svg PUBLIC "-//W3C//DTD SVG 1.1//EN"
 "http://www.w3.org/Graphics/SVG/1.1/DTD/svg11.dtd">
<!-- Generated by graphviz version 2.47.0 (20210316.0004)
 -->
<!-- Title: dependencies Pages: 1 -->
<svg width="750pt" height="284pt"
 viewBox="0.00 0.00 750.00 284.00" xmlns="http://www.w3.org/2000/svg" xmlns:xlink="http://www.w3.org/1999/xlink">
<g id="graph0" class="graph" transform="scale(1 1) rotate(0) translate(4 280)">
<title>dependencies</title>
<polygon fill="white" stroke="transparent" points="-4,4 -4,-280 746,-280 746,4 -4,4"/>
<text text-anchor="start" x="350.01" y="-42.4" font-family="Times-12" font-weight="bold" font-size="14.00">Legend</text>
<polygon fill="#ffffb3" stroke="transparent" points="137,-10 137,-30 157,-30 157,-10 137,-10"/>
<text text-anchor="start" x="160.63" y="-15.4" font-family="Times-12" font-size="14.00"> &#160;Declarations</text>
<polygon fill="#8dd3c7" stroke="transparent" points="250,-10 250,-30 270,-30 270,-10 250,-10"/>
<text text-anchor="start" x="273.73" y="-15.4" font-family="Times-12" font-size="14.00"> &#160;Module</text>
<polygon fill="#80b1d3" stroke="transparent" points="336,-10 336,-30 356,-30 356,-10 336,-10"/>
<text text-anchor="start" x="359.78" y="-15.4" font-family="Times-12" font-size="14.00"> &#160;Bootstrap</text>
<polygon fill="#fdb462" stroke="transparent" points="433,-10 433,-30 453,-30 453,-10 433,-10"/>
<text text-anchor="start" x="456.67" y="-15.4" font-family="Times-12" font-size="14.00"> &#160;Providers</text>
<polygon fill="#fb8072" stroke="transparent" points="529,-10 529,-30 549,-30 549,-10 529,-10"/>
<text text-anchor="start" x="552.73" y="-15.4" font-family="Times-12" font-size="14.00"> &#160;Exports</text>
<g id="clust1" class="cluster">
<title>cluster_AuthorsModule</title>
<polygon fill="none" stroke="black" stroke-dasharray="1,5" points="8,-70 8,-268 734,-268 734,-70 8,-70"/>
</g>
<g id="clust3" class="cluster">
<title>cluster_AuthorsModule_imports</title>
<polygon fill="none" stroke="black" points="570,-78 570,-130 726,-130 726,-78 570,-78"/>
</g>
<g id="clust6" class="cluster">
<title>cluster_AuthorsModule_providers</title>
<polygon fill="none" stroke="black" points="16,-78 16,-130 562,-130 562,-78 16,-78"/>
</g>
<g id="clust4" class="cluster">
<title>cluster_AuthorsModule_exports</title>
<polygon fill="none" stroke="black" points="216,-208 216,-260 628,-260 628,-208 216,-208"/>
</g>
<!-- JournalSharedModule -->
<g id="node1" class="node">
<title>JournalSharedModule</title>
<polygon fill="#8dd3c7" stroke="black" points="717.63,-122 714.63,-126 693.63,-126 690.63,-122 578.37,-122 578.37,-86 717.63,-86 717.63,-122"/>
<text text-anchor="middle" x="648" y="-99.8" font-family="Times,serif" font-size="14.00">JournalSharedModule</text>
</g>
<!-- AuthorsModule -->
<g id="node2" class="node">
<title>AuthorsModule</title>
<polygon fill="#8dd3c7" stroke="black" points="479.15,-187 476.15,-191 455.15,-191 452.15,-187 374.85,-187 374.85,-151 479.15,-151 479.15,-187"/>
<text text-anchor="middle" x="427" y="-164.8" font-family="Times,serif" font-size="14.00">AuthorsModule</text>
</g>
<!-- JournalSharedModule&#45;&gt;AuthorsModule -->
<g id="edge1" class="edge">
<title>JournalSharedModule&#45;&gt;AuthorsModule</title>
<path fill="none" stroke="black" d="M599.14,-122.11C599.14,-141.34 599.14,-169 599.14,-169 599.14,-169 489.58,-169 489.58,-169"/>
<polygon fill="black" stroke="black" points="489.58,-165.5 479.58,-169 489.58,-172.5 489.58,-165.5"/>
</g>
<!-- AccountCreatedEventHandler  -->
<g id="node3" class="node">
<title>AccountCreatedEventHandler </title>
<polygon fill="#fb8072" stroke="black" points="620.2,-252 431.8,-252 431.8,-216 620.2,-216 620.2,-252"/>
<text text-anchor="middle" x="526" y="-229.8" font-family="Times,serif" font-size="14.00">AccountCreatedEventHandler </text>
</g>
<!-- AuthorsModule&#45;&gt;AccountCreatedEventHandler  -->
<g id="edge2" class="edge">
<title>AuthorsModule&#45;&gt;AccountCreatedEventHandler </title>
<path fill="none" stroke="black" stroke-dasharray="5,2" d="M455.61,-187.11C455.61,-187.11 455.61,-205.99 455.61,-205.99"/>
<polygon fill="black" stroke="black" points="452.11,-205.99 455.61,-215.99 459.11,-205.99 452.11,-205.99"/>
</g>
<!-- AuthorRemovedEventHandler  -->
<g id="node4" class="node">
<title>AuthorRemovedEventHandler </title>
<polygon fill="#fb8072" stroke="black" points="414.06,-252 223.94,-252 223.94,-216 414.06,-216 414.06,-252"/>
<text text-anchor="middle" x="319" y="-229.8" font-family="Times,serif" font-size="14.00">AuthorRemovedEventHandler </text>
</g>
<!-- AuthorsModule&#45;&gt;AuthorRemovedEventHandler  -->
<g id="edge3" class="edge">
<title>AuthorsModule&#45;&gt;AuthorRemovedEventHandler </title>
<path fill="none" stroke="black" stroke-dasharray="5,2" d="M394.48,-187.11C394.48,-187.11 394.48,-205.99 394.48,-205.99"/>
<polygon fill="black" stroke="black" points="390.98,-205.99 394.48,-215.99 397.98,-205.99 390.98,-205.99"/>
</g>
<!-- AccountCreatedEventHandler -->
<g id="node5" class="node">
<title>AccountCreatedEventHandler</title>
<ellipse fill="#fdb462" stroke="black" cx="427" cy="-104" rx="127.31" ry="18"/>
<text text-anchor="middle" x="427" y="-99.8" font-family="Times,serif" font-size="14.00">AccountCreatedEventHandler</text>
</g>
<!-- AccountCreatedEventHandler&#45;&gt;AuthorsModule -->
<g id="edge4" class="edge">
<title>AccountCreatedEventHandler&#45;&gt;AuthorsModule</title>
<path fill="none" stroke="black" d="M427,-122.11C427,-122.11 427,-140.99 427,-140.99"/>
<polygon fill="black" stroke="black" points="423.5,-140.99 427,-150.99 430.5,-140.99 423.5,-140.99"/>
</g>
<!-- AuthorRemovedEventHandler -->
<g id="node6" class="node">
<title>AuthorRemovedEventHandler</title>
<ellipse fill="#fdb462" stroke="black" cx="153" cy="-104" rx="129.06" ry="18"/>
<text text-anchor="middle" x="153" y="-99.8" font-family="Times,serif" font-size="14.00">AuthorRemovedEventHandler</text>
</g>
<!-- AuthorRemovedEventHandler&#45;&gt;AuthorsModule -->
<g id="edge5" class="edge">
<title>AuthorRemovedEventHandler&#45;&gt;AuthorsModule</title>
<path fill="none" stroke="black" d="M252.88,-115.62C252.88,-134.32 252.88,-169 252.88,-169 252.88,-169 364.76,-169 364.76,-169"/>
<polygon fill="black" stroke="black" points="364.76,-172.5 374.76,-169 364.76,-165.5 364.76,-172.5"/>
</g>
</g>
</svg>
