<?xml version="1.0" encoding="UTF-8" standalone="no"?>
<!DOCTYPE svg PUBLIC "-//W3C//DTD SVG 1.1//EN"
 "http://www.w3.org/Graphics/SVG/1.1/DTD/svg11.dtd">
<!-- Generated by graphviz version 2.47.0 (20210316.0004)
 -->
<!-- Title: dependencies Pages: 1 -->
<svg width="1652pt" height="284pt"
 viewBox="0.00 0.00 1652.00 284.00" xmlns="http://www.w3.org/2000/svg" xmlns:xlink="http://www.w3.org/1999/xlink">
<g id="graph0" class="graph" transform="scale(1 1) rotate(0) translate(4 280)">
<title>dependencies</title>
<polygon fill="white" stroke="transparent" points="-4,4 -4,-280 1648,-280 1648,4 -4,4"/>
<text text-anchor="start" x="801.01" y="-42.4" font-family="Times-12" font-weight="bold" font-size="14.00">Legend</text>
<polygon fill="#ffffb3" stroke="transparent" points="588,-10 588,-30 608,-30 608,-10 588,-10"/>
<text text-anchor="start" x="611.63" y="-15.4" font-family="Times-12" font-size="14.00"> &#160;Declarations</text>
<polygon fill="#8dd3c7" stroke="transparent" points="701,-10 701,-30 721,-30 721,-10 701,-10"/>
<text text-anchor="start" x="724.73" y="-15.4" font-family="Times-12" font-size="14.00"> &#160;Module</text>
<polygon fill="#80b1d3" stroke="transparent" points="787,-10 787,-30 807,-30 807,-10 787,-10"/>
<text text-anchor="start" x="810.78" y="-15.4" font-family="Times-12" font-size="14.00"> &#160;Bootstrap</text>
<polygon fill="#fdb462" stroke="transparent" points="884,-10 884,-30 904,-30 904,-10 884,-10"/>
<text text-anchor="start" x="907.67" y="-15.4" font-family="Times-12" font-size="14.00"> &#160;Providers</text>
<polygon fill="#fb8072" stroke="transparent" points="980,-10 980,-30 1000,-30 1000,-10 980,-10"/>
<text text-anchor="start" x="1003.73" y="-15.4" font-family="Times-12" font-size="14.00"> &#160;Exports</text>
<g id="clust1" class="cluster">
<title>cluster_AuthenticationModule</title>
<polygon fill="none" stroke="black" stroke-dasharray="1,5" points="8,-70 8,-268 1636,-268 1636,-70 8,-70"/>
</g>
<g id="clust6" class="cluster">
<title>cluster_AuthenticationModule_providers</title>
<polygon fill="none" stroke="black" points="528,-78 528,-130 1628,-130 1628,-78 528,-78"/>
</g>
<g id="clust3" class="cluster">
<title>cluster_AuthenticationModule_imports</title>
<polygon fill="none" stroke="black" points="16,-78 16,-130 520,-130 520,-78 16,-78"/>
</g>
<g id="clust4" class="cluster">
<title>cluster_AuthenticationModule_exports</title>
<polygon fill="none" stroke="black" points="161,-208 161,-260 983,-260 983,-208 161,-208"/>
</g>
<!-- AccountModule -->
<g id="node1" class="node">
<title>AccountModule</title>
<polygon fill="#8dd3c7" stroke="black" points="512.48,-122 509.48,-126 488.48,-126 485.48,-122 405.52,-122 405.52,-86 512.48,-86 512.48,-122"/>
<text text-anchor="middle" x="459" y="-99.8" font-family="Times,serif" font-size="14.00">AccountModule</text>
</g>
<!-- AuthenticationModule -->
<g id="node4" class="node">
<title>AuthenticationModule</title>
<polygon fill="#8dd3c7" stroke="black" points="679.25,-187 676.25,-191 655.25,-191 652.25,-187 536.75,-187 536.75,-151 679.25,-151 679.25,-187"/>
<text text-anchor="middle" x="608" y="-164.8" font-family="Times,serif" font-size="14.00">AuthenticationModule</text>
</g>
<!-- AccountModule&#45;&gt;AuthenticationModule -->
<g id="edge1" class="edge">
<title>AccountModule&#45;&gt;AuthenticationModule</title>
<path fill="none" stroke="black" d="M508.91,-122.01C508.91,-138.05 508.91,-159 508.91,-159 508.91,-159 526.51,-159 526.51,-159"/>
<polygon fill="black" stroke="black" points="526.51,-162.5 536.51,-159 526.51,-155.5 526.51,-162.5"/>
</g>
<!-- IdentitySharedModule -->
<g id="node2" class="node">
<title>IdentitySharedModule</title>
<polygon fill="#8dd3c7" stroke="black" points="387.97,-122 384.97,-126 363.97,-126 360.97,-122 246.03,-122 246.03,-86 387.97,-86 387.97,-122"/>
<text text-anchor="middle" x="317" y="-99.8" font-family="Times,serif" font-size="14.00">IdentitySharedModule</text>
</g>
<!-- IdentitySharedModule&#45;&gt;AuthenticationModule -->
<g id="edge2" class="edge">
<title>IdentitySharedModule&#45;&gt;AuthenticationModule</title>
<path fill="none" stroke="black" d="M317,-122.27C317,-140.56 317,-166 317,-166 317,-166 526.44,-166 526.44,-166"/>
<polygon fill="black" stroke="black" points="526.44,-169.5 536.44,-166 526.44,-162.5 526.44,-169.5"/>
</g>
<!-- TwoFactorAuthenticationModule -->
<g id="node3" class="node">
<title>TwoFactorAuthenticationModule</title>
<polygon fill="#8dd3c7" stroke="black" points="228.18,-122 225.18,-126 204.18,-126 201.18,-122 23.82,-122 23.82,-86 228.18,-86 228.18,-122"/>
<text text-anchor="middle" x="126" y="-99.8" font-family="Times,serif" font-size="14.00">TwoFactorAuthenticationModule</text>
</g>
<!-- TwoFactorAuthenticationModule&#45;&gt;AuthenticationModule -->
<g id="edge3" class="edge">
<title>TwoFactorAuthenticationModule&#45;&gt;AuthenticationModule</title>
<path fill="none" stroke="black" d="M198.34,-122.13C198.34,-142.57 198.34,-173 198.34,-173 198.34,-173 526.64,-173 526.64,-173"/>
<polygon fill="black" stroke="black" points="526.64,-176.5 536.64,-173 526.64,-169.5 526.64,-176.5"/>
</g>
<!-- AccountPasswordUpdatedEventHandler  -->
<g id="node5" class="node">
<title>AccountPasswordUpdatedEventHandler </title>
<polygon fill="#fb8072" stroke="black" points="974.75,-252 729.25,-252 729.25,-216 974.75,-216 974.75,-252"/>
<text text-anchor="middle" x="852" y="-229.8" font-family="Times,serif" font-size="14.00">AccountPasswordUpdatedEventHandler </text>
</g>
<!-- AuthenticationModule&#45;&gt;AccountPasswordUpdatedEventHandler  -->
<g id="edge4" class="edge">
<title>AuthenticationModule&#45;&gt;AccountPasswordUpdatedEventHandler </title>
<path fill="none" stroke="black" stroke-dasharray="5,2" d="M679.39,-178C750.87,-178 850.32,-178 850.32,-178 850.32,-178 850.32,-205.97 850.32,-205.97"/>
<polygon fill="black" stroke="black" points="846.82,-205.97 850.32,-215.97 853.82,-205.97 846.82,-205.97"/>
</g>
<!-- AccountSuspendedEventHandler  -->
<g id="node6" class="node">
<title>AccountSuspendedEventHandler </title>
<polygon fill="#fb8072" stroke="black" points="710.83,-252 505.17,-252 505.17,-216 710.83,-216 710.83,-252"/>
<text text-anchor="middle" x="608" y="-229.8" font-family="Times,serif" font-size="14.00">AccountSuspendedEventHandler </text>
</g>
<!-- AuthenticationModule&#45;&gt;AccountSuspendedEventHandler  -->
<g id="edge5" class="edge">
<title>AuthenticationModule&#45;&gt;AccountSuspendedEventHandler </title>
<path fill="none" stroke="black" stroke-dasharray="5,2" d="M608,-187.11C608,-187.11 608,-205.99 608,-205.99"/>
<polygon fill="black" stroke="black" points="604.5,-205.99 608,-215.99 611.5,-205.99 604.5,-205.99"/>
</g>
<!-- RefreshTokenInvalidationJobTriggeredEventHandler  -->
<g id="node7" class="node">
<title>RefreshTokenInvalidationJobTriggeredEventHandler </title>
<polygon fill="#fb8072" stroke="black" points="487.33,-252 168.67,-252 168.67,-216 487.33,-216 487.33,-252"/>
<text text-anchor="middle" x="328" y="-229.8" font-family="Times,serif" font-size="14.00">RefreshTokenInvalidationJobTriggeredEventHandler </text>
</g>
<!-- AuthenticationModule&#45;&gt;RefreshTokenInvalidationJobTriggeredEventHandler  -->
<g id="edge6" class="edge">
<title>AuthenticationModule&#45;&gt;RefreshTokenInvalidationJobTriggeredEventHandler </title>
<path fill="none" stroke="black" stroke-dasharray="5,2" d="M536.68,-180C493.4,-180 446.46,-180 446.46,-180 446.46,-180 446.46,-205.72 446.46,-205.72"/>
<polygon fill="black" stroke="black" points="442.96,-205.72 446.46,-215.72 449.96,-205.72 442.96,-205.72"/>
</g>
<!-- AccountPasswordUpdatedEventHandler -->
<g id="node8" class="node">
<title>AccountPasswordUpdatedEventHandler</title>
<ellipse fill="#fdb462" stroke="black" cx="1453" cy="-104" rx="167.2" ry="18"/>
<text text-anchor="middle" x="1453" y="-99.8" font-family="Times,serif" font-size="14.00">AccountPasswordUpdatedEventHandler</text>
</g>
<!-- AccountPasswordUpdatedEventHandler&#45;&gt;AuthenticationModule -->
<g id="edge7" class="edge">
<title>AccountPasswordUpdatedEventHandler&#45;&gt;AuthenticationModule</title>
<path fill="none" stroke="black" d="M1453,-122.11C1453,-141.34 1453,-169 1453,-169 1453,-169 689.32,-169 689.32,-169"/>
<polygon fill="black" stroke="black" points="689.32,-165.5 679.32,-169 689.32,-172.5 689.32,-165.5"/>
</g>
<!-- AccountSuspendedEventHandler -->
<g id="node9" class="node">
<title>AccountSuspendedEventHandler</title>
<ellipse fill="#fdb462" stroke="black" cx="1129" cy="-104" rx="139.43" ry="18"/>
<text text-anchor="middle" x="1129" y="-99.8" font-family="Times,serif" font-size="14.00">AccountSuspendedEventHandler</text>
</g>
<!-- AccountSuspendedEventHandler&#45;&gt;AuthenticationModule -->
<g id="edge8" class="edge">
<title>AccountSuspendedEventHandler&#45;&gt;AuthenticationModule</title>
<path fill="none" stroke="black" d="M1129,-122.03C1129,-138.4 1129,-160 1129,-160 1129,-160 689.35,-160 689.35,-160"/>
<polygon fill="black" stroke="black" points="689.35,-156.5 679.35,-160 689.35,-163.5 689.35,-156.5"/>
</g>
<!-- RefreshTokenInvalidationJobTriggeredEventHandler -->
<g id="node10" class="node">
<title>RefreshTokenInvalidationJobTriggeredEventHandler</title>
<ellipse fill="#fdb462" stroke="black" cx="754" cy="-104" rx="217.52" ry="18"/>
<text text-anchor="middle" x="754" y="-99.8" font-family="Times,serif" font-size="14.00">RefreshTokenInvalidationJobTriggeredEventHandler</text>
</g>
<!-- RefreshTokenInvalidationJobTriggeredEventHandler&#45;&gt;AuthenticationModule -->
<g id="edge9" class="edge">
<title>RefreshTokenInvalidationJobTriggeredEventHandler&#45;&gt;AuthenticationModule</title>
<path fill="none" stroke="black" d="M608,-117.47C608,-117.47 608,-140.86 608,-140.86"/>
<polygon fill="black" stroke="black" points="604.5,-140.86 608,-150.86 611.5,-140.86 604.5,-140.86"/>
</g>
</g>
</svg>
