<?xml version="1.0" encoding="UTF-8" standalone="no"?>
<!DOCTYPE svg PUBLIC "-//W3C//DTD SVG 1.1//EN"
 "http://www.w3.org/Graphics/SVG/1.1/DTD/svg11.dtd">
<!-- Generated by graphviz version 2.47.0 (20210316.0004)
 -->
<!-- Title: dependencies Pages: 1 -->
<svg width="1652pt" height="284pt"
 viewBox="0.00 0.00 1652.00 284.00" xmlns="http://www.w3.org/2000/svg" xmlns:xlink="http://www.w3.org/1999/xlink">
<g id="graph0" class="graph" transform="scale(1 1) rotate(0) translate(4 280)">
<title>dependencies</title>
<polygon fill="white" stroke="transparent" points="-4,4 -4,-280 1648,-280 1648,4 -4,4"/>
<text text-anchor="start" x="801.01" y="-42.4" font-family="Times-12" font-weight="bold" font-size="14.00">Legend</text>
<polygon fill="#ffffb3" stroke="transparent" points="588,-10 588,-30 608,-30 608,-10 588,-10"/>
<text text-anchor="start" x="611.63" y="-15.4" font-family="Times-12" font-size="14.00"> &#160;Declarations</text>
<polygon fill="#8dd3c7" stroke="transparent" points="701,-10 701,-30 721,-30 721,-10 701,-10"/>
<text text-anchor="start" x="724.73" y="-15.4" font-family="Times-12" font-size="14.00"> &#160;Module</text>
<polygon fill="#80b1d3" stroke="transparent" points="787,-10 787,-30 807,-30 807,-10 787,-10"/>
<text text-anchor="start" x="810.78" y="-15.4" font-family="Times-12" font-size="14.00"> &#160;Bootstrap</text>
<polygon fill="#fdb462" stroke="transparent" points="884,-10 884,-30 904,-30 904,-10 884,-10"/>
<text text-anchor="start" x="907.67" y="-15.4" font-family="Times-12" font-size="14.00"> &#160;Providers</text>
<polygon fill="#fb8072" stroke="transparent" points="980,-10 980,-30 1000,-30 1000,-10 980,-10"/>
<text text-anchor="start" x="1003.73" y="-15.4" font-family="Times-12" font-size="14.00"> &#160;Exports</text>
<g id="clust1" class="cluster">
<title>cluster_AuthenticationModule</title>
<polygon fill="none" stroke="black" stroke-dasharray="1,5" points="8,-70 8,-268 1636,-268 1636,-70 8,-70"/>
</g>
<g id="clust3" class="cluster">
<title>cluster_AuthenticationModule_imports</title>
<polygon fill="none" stroke="black" points="1124,-78 1124,-130 1628,-130 1628,-78 1124,-78"/>
</g>
<g id="clust4" class="cluster">
<title>cluster_AuthenticationModule_exports</title>
<polygon fill="none" stroke="black" points="640,-208 640,-260 1462,-260 1462,-208 640,-208"/>
</g>
<g id="clust6" class="cluster">
<title>cluster_AuthenticationModule_providers</title>
<polygon fill="none" stroke="black" points="16,-78 16,-130 1116,-130 1116,-78 16,-78"/>
</g>
<!-- AccountModule -->
<g id="node1" class="node">
<title>AccountModule</title>
<polygon fill="#8dd3c7" stroke="black" points="1620.48,-122 1617.48,-126 1596.48,-126 1593.48,-122 1513.52,-122 1513.52,-86 1620.48,-86 1620.48,-122"/>
<text text-anchor="middle" x="1567" y="-99.8" font-family="Times,serif" font-size="14.00">AccountModule</text>
</g>
<!-- AuthenticationModule -->
<g id="node4" class="node">
<title>AuthenticationModule</title>
<polygon fill="#8dd3c7" stroke="black" points="1158.25,-187 1155.25,-191 1134.25,-191 1131.25,-187 1015.75,-187 1015.75,-151 1158.25,-151 1158.25,-187"/>
<text text-anchor="middle" x="1087" y="-164.8" font-family="Times,serif" font-size="14.00">AuthenticationModule</text>
</g>
<!-- AccountModule&#45;&gt;AuthenticationModule -->
<g id="edge1" class="edge">
<title>AccountModule&#45;&gt;AuthenticationModule</title>
<path fill="none" stroke="black" d="M1567,-122.11C1567,-141.34 1567,-169 1567,-169 1567,-169 1168.34,-169 1168.34,-169"/>
<polygon fill="black" stroke="black" points="1168.34,-165.5 1158.34,-169 1168.34,-172.5 1168.34,-165.5"/>
</g>
<!-- IdentitySharedModule -->
<g id="node2" class="node">
<title>IdentitySharedModule</title>
<polygon fill="#8dd3c7" stroke="black" points="1495.97,-122 1492.97,-126 1471.97,-126 1468.97,-122 1354.03,-122 1354.03,-86 1495.97,-86 1495.97,-122"/>
<text text-anchor="middle" x="1425" y="-99.8" font-family="Times,serif" font-size="14.00">IdentitySharedModule</text>
</g>
<!-- IdentitySharedModule&#45;&gt;AuthenticationModule -->
<g id="edge2" class="edge">
<title>IdentitySharedModule&#45;&gt;AuthenticationModule</title>
<path fill="none" stroke="black" d="M1403.95,-122.03C1403.95,-138.4 1403.95,-160 1403.95,-160 1403.95,-160 1168.52,-160 1168.52,-160"/>
<polygon fill="black" stroke="black" points="1168.52,-156.5 1158.52,-160 1168.52,-163.5 1168.52,-156.5"/>
</g>
<!-- TwoFactorAuthenticationModule -->
<g id="node3" class="node">
<title>TwoFactorAuthenticationModule</title>
<polygon fill="#8dd3c7" stroke="black" points="1336.18,-122 1333.18,-126 1312.18,-126 1309.18,-122 1131.82,-122 1131.82,-86 1336.18,-86 1336.18,-122"/>
<text text-anchor="middle" x="1234" y="-99.8" font-family="Times,serif" font-size="14.00">TwoFactorAuthenticationModule</text>
</g>
<!-- TwoFactorAuthenticationModule&#45;&gt;AuthenticationModule -->
<g id="edge3" class="edge">
<title>TwoFactorAuthenticationModule&#45;&gt;AuthenticationModule</title>
<path fill="none" stroke="black" d="M1145.14,-122.11C1145.14,-122.11 1145.14,-140.99 1145.14,-140.99"/>
<polygon fill="black" stroke="black" points="1141.64,-140.99 1145.14,-150.99 1148.64,-140.99 1141.64,-140.99"/>
</g>
<!-- AccountPasswordUpdatedEventHandler  -->
<g id="node5" class="node">
<title>AccountPasswordUpdatedEventHandler </title>
<polygon fill="#fb8072" stroke="black" points="1453.75,-252 1208.25,-252 1208.25,-216 1453.75,-216 1453.75,-252"/>
<text text-anchor="middle" x="1331" y="-229.8" font-family="Times,serif" font-size="14.00">AccountPasswordUpdatedEventHandler </text>
</g>
<!-- AuthenticationModule&#45;&gt;AccountPasswordUpdatedEventHandler  -->
<g id="edge4" class="edge">
<title>AuthenticationModule&#45;&gt;AccountPasswordUpdatedEventHandler </title>
<path fill="none" stroke="black" stroke-dasharray="5,2" d="M1158.3,-178C1210.45,-178 1272.11,-178 1272.11,-178 1272.11,-178 1272.11,-205.97 1272.11,-205.97"/>
<polygon fill="black" stroke="black" points="1268.61,-205.97 1272.11,-215.97 1275.61,-205.97 1268.61,-205.97"/>
</g>
<!-- AccountSuspendedEventHandler  -->
<g id="node6" class="node">
<title>AccountSuspendedEventHandler </title>
<polygon fill="#fb8072" stroke="black" points="1189.83,-252 984.17,-252 984.17,-216 1189.83,-216 1189.83,-252"/>
<text text-anchor="middle" x="1087" y="-229.8" font-family="Times,serif" font-size="14.00">AccountSuspendedEventHandler </text>
</g>
<!-- AuthenticationModule&#45;&gt;AccountSuspendedEventHandler  -->
<g id="edge5" class="edge">
<title>AuthenticationModule&#45;&gt;AccountSuspendedEventHandler </title>
<path fill="none" stroke="black" stroke-dasharray="5,2" d="M1087,-187.11C1087,-187.11 1087,-205.99 1087,-205.99"/>
<polygon fill="black" stroke="black" points="1083.5,-205.99 1087,-215.99 1090.5,-205.99 1083.5,-205.99"/>
</g>
<!-- RefreshTokenInvalidationJobTriggeredEventHandler  -->
<g id="node7" class="node">
<title>RefreshTokenInvalidationJobTriggeredEventHandler </title>
<polygon fill="#fb8072" stroke="black" points="966.33,-252 647.67,-252 647.67,-216 966.33,-216 966.33,-252"/>
<text text-anchor="middle" x="807" y="-229.8" font-family="Times,serif" font-size="14.00">RefreshTokenInvalidationJobTriggeredEventHandler </text>
</g>
<!-- AuthenticationModule&#45;&gt;RefreshTokenInvalidationJobTriggeredEventHandler  -->
<g id="edge6" class="edge">
<title>AuthenticationModule&#45;&gt;RefreshTokenInvalidationJobTriggeredEventHandler </title>
<path fill="none" stroke="black" stroke-dasharray="5,2" d="M1015.7,-178C952.5,-178 870.16,-178 870.16,-178 870.16,-178 870.16,-205.97 870.16,-205.97"/>
<polygon fill="black" stroke="black" points="866.66,-205.97 870.16,-215.97 873.66,-205.97 866.66,-205.97"/>
</g>
<!-- AccountPasswordUpdatedEventHandler -->
<g id="node8" class="node">
<title>AccountPasswordUpdatedEventHandler</title>
<ellipse fill="#fdb462" stroke="black" cx="941" cy="-104" rx="167.2" ry="18"/>
<text text-anchor="middle" x="941" y="-99.8" font-family="Times,serif" font-size="14.00">AccountPasswordUpdatedEventHandler</text>
</g>
<!-- AccountPasswordUpdatedEventHandler&#45;&gt;AuthenticationModule -->
<g id="edge7" class="edge">
<title>AccountPasswordUpdatedEventHandler&#45;&gt;AuthenticationModule</title>
<path fill="none" stroke="black" d="M1061.86,-116.53C1061.86,-116.53 1061.86,-140.85 1061.86,-140.85"/>
<polygon fill="black" stroke="black" points="1058.36,-140.85 1061.86,-150.85 1065.36,-140.85 1058.36,-140.85"/>
</g>
<!-- AccountSuspendedEventHandler -->
<g id="node9" class="node">
<title>AccountSuspendedEventHandler</title>
<ellipse fill="#fdb462" stroke="black" cx="617" cy="-104" rx="139.43" ry="18"/>
<text text-anchor="middle" x="617" y="-99.8" font-family="Times,serif" font-size="14.00">AccountSuspendedEventHandler</text>
</g>
<!-- AccountSuspendedEventHandler&#45;&gt;AuthenticationModule -->
<g id="edge8" class="edge">
<title>AccountSuspendedEventHandler&#45;&gt;AuthenticationModule</title>
<path fill="none" stroke="black" d="M701.9,-118.42C701.9,-135.01 701.9,-160 701.9,-160 701.9,-160 1005.47,-160 1005.47,-160"/>
<polygon fill="black" stroke="black" points="1005.47,-163.5 1015.47,-160 1005.47,-156.5 1005.47,-163.5"/>
</g>
<!-- RefreshTokenInvalidationJobTriggeredEventHandler -->
<g id="node10" class="node">
<title>RefreshTokenInvalidationJobTriggeredEventHandler</title>
<ellipse fill="#fdb462" stroke="black" cx="242" cy="-104" rx="217.52" ry="18"/>
<text text-anchor="middle" x="242" y="-99.8" font-family="Times,serif" font-size="14.00">RefreshTokenInvalidationJobTriggeredEventHandler</text>
</g>
<!-- RefreshTokenInvalidationJobTriggeredEventHandler&#45;&gt;AuthenticationModule -->
<g id="edge9" class="edge">
<title>RefreshTokenInvalidationJobTriggeredEventHandler&#45;&gt;AuthenticationModule</title>
<path fill="none" stroke="black" d="M242,-122.11C242,-141.34 242,-169 242,-169 242,-169 1005.68,-169 1005.68,-169"/>
<polygon fill="black" stroke="black" points="1005.68,-172.5 1015.68,-169 1005.68,-165.5 1005.68,-172.5"/>
</g>
</g>
</svg>
