<?xml version="1.0" encoding="UTF-8" standalone="no"?>
<!DOCTYPE svg PUBLIC "-//W3C//DTD SVG 1.1//EN"
 "http://www.w3.org/Graphics/SVG/1.1/DTD/svg11.dtd">
<!-- Generated by graphviz version 2.47.0 (20210316.0004)
 -->
<!-- Title: dependencies Pages: 1 -->
<svg width="504pt" height="284pt"
 viewBox="0.00 0.00 504.00 284.00" xmlns="http://www.w3.org/2000/svg" xmlns:xlink="http://www.w3.org/1999/xlink">
<g id="graph0" class="graph" transform="scale(1 1) rotate(0) translate(4 280)">
<title>dependencies</title>
<polygon fill="white" stroke="transparent" points="-4,4 -4,-280 500,-280 500,4 -4,4"/>
<text text-anchor="start" x="227.01" y="-42.4" font-family="Times-12" font-weight="bold" font-size="14.00">Legend</text>
<polygon fill="#ffffb3" stroke="transparent" points="14,-10 14,-30 34,-30 34,-10 14,-10"/>
<text text-anchor="start" x="37.63" y="-15.4" font-family="Times-12" font-size="14.00"> &#160;Declarations</text>
<polygon fill="#8dd3c7" stroke="transparent" points="127,-10 127,-30 147,-30 147,-10 127,-10"/>
<text text-anchor="start" x="150.73" y="-15.4" font-family="Times-12" font-size="14.00"> &#160;Module</text>
<polygon fill="#80b1d3" stroke="transparent" points="213,-10 213,-30 233,-30 233,-10 213,-10"/>
<text text-anchor="start" x="236.78" y="-15.4" font-family="Times-12" font-size="14.00"> &#160;Bootstrap</text>
<polygon fill="#fdb462" stroke="transparent" points="310,-10 310,-30 330,-30 330,-10 310,-10"/>
<text text-anchor="start" x="333.67" y="-15.4" font-family="Times-12" font-size="14.00"> &#160;Providers</text>
<polygon fill="#fb8072" stroke="transparent" points="406,-10 406,-30 426,-30 426,-10 406,-10"/>
<text text-anchor="start" x="429.73" y="-15.4" font-family="Times-12" font-size="14.00"> &#160;Exports</text>
<g id="clust1" class="cluster">
<title>cluster_IdentitySharedModule</title>
<polygon fill="none" stroke="black" stroke-dasharray="1,5" points="12.5,-70 12.5,-268 483.5,-268 483.5,-70 12.5,-70"/>
</g>
<g id="clust3" class="cluster">
<title>cluster_IdentitySharedModule_imports</title>
<polygon fill="none" stroke="black" points="20.5,-78 20.5,-130 475.5,-130 475.5,-78 20.5,-78"/>
</g>
<g id="clust4" class="cluster">
<title>cluster_IdentitySharedModule_exports</title>
<polygon fill="none" stroke="black" points="96.5,-208 96.5,-260 406.5,-260 406.5,-208 96.5,-208"/>
</g>
<!-- DatabaseModule -->
<g id="node1" class="node">
<title>DatabaseModule</title>
<polygon fill="#8dd3c7" stroke="black" points="467.85,-122 464.85,-126 443.85,-126 440.85,-122 357.15,-122 357.15,-86 467.85,-86 467.85,-122"/>
<text text-anchor="middle" x="412.5" y="-99.8" font-family="Times,serif" font-size="14.00">DatabaseModule</text>
</g>
<!-- IdentitySharedModule -->
<g id="node4" class="node">
<title>IdentitySharedModule</title>
<polygon fill="#8dd3c7" stroke="black" points="377.47,-187 374.47,-191 353.47,-191 350.47,-187 235.53,-187 235.53,-151 377.47,-151 377.47,-187"/>
<text text-anchor="middle" x="306.5" y="-164.8" font-family="Times,serif" font-size="14.00">IdentitySharedModule</text>
</g>
<!-- DatabaseModule&#45;&gt;IdentitySharedModule -->
<g id="edge1" class="edge">
<title>DatabaseModule&#45;&gt;IdentitySharedModule</title>
<path fill="none" stroke="black" d="M370.68,-122.11C370.68,-122.11 370.68,-140.99 370.68,-140.99"/>
<polygon fill="black" stroke="black" points="367.18,-140.99 370.68,-150.99 374.18,-140.99 367.18,-140.99"/>
</g>
<!-- DatabaseModule&#45;&gt;IdentitySharedModule -->
<g id="edge2" class="edge">
<title>DatabaseModule&#45;&gt;IdentitySharedModule</title>
<path fill="none" stroke="black" d="M363.88,-122.11C363.88,-122.11 363.88,-140.99 363.88,-140.99"/>
<polygon fill="black" stroke="black" points="360.38,-140.99 363.88,-150.99 367.38,-140.99 360.38,-140.99"/>
</g>
<!-- HealthCheckModule -->
<g id="node2" class="node">
<title>HealthCheckModule</title>
<polygon fill="#8dd3c7" stroke="black" points="338.63,-122 335.63,-126 314.63,-126 311.63,-122 206.37,-122 206.37,-86 338.63,-86 338.63,-122"/>
<text text-anchor="middle" x="272.5" y="-99.8" font-family="Times,serif" font-size="14.00">HealthCheckModule</text>
</g>
<!-- HealthCheckModule&#45;&gt;IdentitySharedModule -->
<g id="edge3" class="edge">
<title>HealthCheckModule&#45;&gt;IdentitySharedModule</title>
<path fill="none" stroke="black" d="M287.17,-122.11C287.17,-122.11 287.17,-140.99 287.17,-140.99"/>
<polygon fill="black" stroke="black" points="283.67,-140.99 287.17,-150.99 290.67,-140.99 283.67,-140.99"/>
</g>
<!-- IntegrationEventsModule -->
<g id="node3" class="node">
<title>IntegrationEventsModule</title>
<polygon fill="#8dd3c7" stroke="black" points="188.07,-122 185.07,-126 164.07,-126 161.07,-122 28.93,-122 28.93,-86 188.07,-86 188.07,-122"/>
<text text-anchor="middle" x="108.5" y="-99.8" font-family="Times,serif" font-size="14.00">IntegrationEventsModule</text>
</g>
<!-- IntegrationEventsModule&#45;&gt;IdentitySharedModule -->
<g id="edge4" class="edge">
<title>IntegrationEventsModule&#45;&gt;IdentitySharedModule</title>
<path fill="none" stroke="black" d="M146.12,-122.11C146.12,-141.34 146.12,-169 146.12,-169 146.12,-169 225.22,-169 225.22,-169"/>
<polygon fill="black" stroke="black" points="225.22,-172.5 235.22,-169 225.22,-165.5 225.22,-172.5"/>
</g>
<!-- DatabaseModule  -->
<g id="node5" class="node">
<title>DatabaseModule </title>
<polygon fill="#fb8072" stroke="black" points="398.85,-252 284.15,-252 284.15,-216 398.85,-216 398.85,-252"/>
<text text-anchor="middle" x="341.5" y="-229.8" font-family="Times,serif" font-size="14.00">DatabaseModule </text>
</g>
<!-- IdentitySharedModule&#45;&gt;DatabaseModule  -->
<g id="edge5" class="edge">
<title>IdentitySharedModule&#45;&gt;DatabaseModule </title>
<path fill="none" stroke="black" stroke-dasharray="5,2" d="M330.9,-187.11C330.9,-187.11 330.9,-205.99 330.9,-205.99"/>
<polygon fill="black" stroke="black" points="327.4,-205.99 330.9,-215.99 334.4,-205.99 327.4,-205.99"/>
</g>
<!-- IntegrationEventsModule  -->
<g id="node6" class="node">
<title>IntegrationEventsModule </title>
<polygon fill="#fb8072" stroke="black" points="266.57,-252 104.43,-252 104.43,-216 266.57,-216 266.57,-252"/>
<text text-anchor="middle" x="185.5" y="-229.8" font-family="Times,serif" font-size="14.00">IntegrationEventsModule </text>
</g>
<!-- IdentitySharedModule&#45;&gt;IntegrationEventsModule  -->
<g id="edge6" class="edge">
<title>IdentitySharedModule&#45;&gt;IntegrationEventsModule </title>
<path fill="none" stroke="black" stroke-dasharray="5,2" d="M251.15,-187.11C251.15,-187.11 251.15,-205.99 251.15,-205.99"/>
<polygon fill="black" stroke="black" points="247.65,-205.99 251.15,-215.99 254.65,-205.99 247.65,-205.99"/>
</g>
</g>
</svg>
