<?xml version="1.0" encoding="UTF-8" standalone="no"?>
<!DOCTYPE svg PUBLIC "-//W3C//DTD SVG 1.1//EN"
 "http://www.w3.org/Graphics/SVG/1.1/DTD/svg11.dtd">
<!-- Generated by graphviz version 2.47.0 (20210316.0004)
 -->
<!-- Title: dependencies Pages: 1 -->
<svg width="705pt" height="211pt"
 viewBox="0.00 0.00 705.00 211.00" xmlns="http://www.w3.org/2000/svg" xmlns:xlink="http://www.w3.org/1999/xlink">
<g id="graph0" class="graph" transform="scale(1 1) rotate(0) translate(4 207)">
<title>dependencies</title>
<polygon fill="white" stroke="transparent" points="-4,4 -4,-207 701,-207 701,4 -4,4"/>
<text text-anchor="start" x="327.51" y="-42.4" font-family="Times-12" font-weight="bold" font-size="14.00">Legend</text>
<polygon fill="#ffffb3" stroke="transparent" points="114.5,-10 114.5,-30 134.5,-30 134.5,-10 114.5,-10"/>
<text text-anchor="start" x="138.13" y="-15.4" font-family="Times-12" font-size="14.00"> &#160;Declarations</text>
<polygon fill="#8dd3c7" stroke="transparent" points="227.5,-10 227.5,-30 247.5,-30 247.5,-10 227.5,-10"/>
<text text-anchor="start" x="251.23" y="-15.4" font-family="Times-12" font-size="14.00"> &#160;Module</text>
<polygon fill="#80b1d3" stroke="transparent" points="313.5,-10 313.5,-30 333.5,-30 333.5,-10 313.5,-10"/>
<text text-anchor="start" x="337.28" y="-15.4" font-family="Times-12" font-size="14.00"> &#160;Bootstrap</text>
<polygon fill="#fdb462" stroke="transparent" points="410.5,-10 410.5,-30 430.5,-30 430.5,-10 410.5,-10"/>
<text text-anchor="start" x="434.17" y="-15.4" font-family="Times-12" font-size="14.00"> &#160;Providers</text>
<polygon fill="#fb8072" stroke="transparent" points="506.5,-10 506.5,-30 526.5,-30 526.5,-10 506.5,-10"/>
<text text-anchor="start" x="530.23" y="-15.4" font-family="Times-12" font-size="14.00"> &#160;Exports</text>
<g id="clust1" class="cluster">
<title>cluster_IdentityModule</title>
<polygon fill="none" stroke="black" stroke-dasharray="1,5" points="8,-70 8,-195 689,-195 689,-70 8,-70"/>
</g>
<g id="clust3" class="cluster">
<title>cluster_IdentityModule_imports</title>
<polygon fill="none" stroke="black" points="16,-78 16,-130 681,-130 681,-78 16,-78"/>
</g>
<!-- AccountModule -->
<g id="node1" class="node">
<title>AccountModule</title>
<polygon fill="#8dd3c7" stroke="black" points="673.48,-122 670.48,-126 649.48,-126 646.48,-122 566.52,-122 566.52,-86 673.48,-86 673.48,-122"/>
<text text-anchor="middle" x="620" y="-99.8" font-family="Times,serif" font-size="14.00">AccountModule</text>
</g>
<!-- IdentityModule -->
<g id="node5" class="node">
<title>IdentityModule</title>
<polygon fill="#8dd3c7" stroke="black" points="448.6,-187 445.6,-191 424.6,-191 421.6,-187 345.4,-187 345.4,-151 448.6,-151 448.6,-187"/>
<text text-anchor="middle" x="397" y="-164.8" font-family="Times,serif" font-size="14.00">IdentityModule</text>
</g>
<!-- AccountModule&#45;&gt;IdentityModule -->
<g id="edge1" class="edge">
<title>AccountModule&#45;&gt;IdentityModule</title>
<path fill="none" stroke="black" d="M620,-122.11C620,-141.34 620,-169 620,-169 620,-169 458.72,-169 458.72,-169"/>
<polygon fill="black" stroke="black" points="458.72,-165.5 448.72,-169 458.72,-172.5 458.72,-165.5"/>
</g>
<!-- AuthenticationModule -->
<g id="node2" class="node">
<title>AuthenticationModule</title>
<polygon fill="#8dd3c7" stroke="black" points="548.25,-122 545.25,-126 524.25,-126 521.25,-122 405.75,-122 405.75,-86 548.25,-86 548.25,-122"/>
<text text-anchor="middle" x="477" y="-99.8" font-family="Times,serif" font-size="14.00">AuthenticationModule</text>
</g>
<!-- AuthenticationModule&#45;&gt;IdentityModule -->
<g id="edge2" class="edge">
<title>AuthenticationModule&#45;&gt;IdentityModule</title>
<path fill="none" stroke="black" d="M427.09,-122.11C427.09,-122.11 427.09,-140.99 427.09,-140.99"/>
<polygon fill="black" stroke="black" points="423.59,-140.99 427.09,-150.99 430.59,-140.99 423.59,-140.99"/>
</g>
<!-- IdentitySharedModule -->
<g id="node3" class="node">
<title>IdentitySharedModule</title>
<polygon fill="#8dd3c7" stroke="black" points="387.97,-122 384.97,-126 363.97,-126 360.97,-122 246.03,-122 246.03,-86 387.97,-86 387.97,-122"/>
<text text-anchor="middle" x="317" y="-99.8" font-family="Times,serif" font-size="14.00">IdentitySharedModule</text>
</g>
<!-- IdentitySharedModule&#45;&gt;IdentityModule -->
<g id="edge3" class="edge">
<title>IdentitySharedModule&#45;&gt;IdentityModule</title>
<path fill="none" stroke="black" d="M366.72,-122.11C366.72,-122.11 366.72,-140.99 366.72,-140.99"/>
<polygon fill="black" stroke="black" points="363.22,-140.99 366.72,-150.99 370.22,-140.99 363.22,-140.99"/>
</g>
<!-- TwoFactorAuthenticationModule -->
<g id="node4" class="node">
<title>TwoFactorAuthenticationModule</title>
<polygon fill="#8dd3c7" stroke="black" points="228.18,-122 225.18,-126 204.18,-126 201.18,-122 23.82,-122 23.82,-86 228.18,-86 228.18,-122"/>
<text text-anchor="middle" x="126" y="-99.8" font-family="Times,serif" font-size="14.00">TwoFactorAuthenticationModule</text>
</g>
<!-- TwoFactorAuthenticationModule&#45;&gt;IdentityModule -->
<g id="edge4" class="edge">
<title>TwoFactorAuthenticationModule&#45;&gt;IdentityModule</title>
<path fill="none" stroke="black" d="M126,-122.11C126,-141.34 126,-169 126,-169 126,-169 335.39,-169 335.39,-169"/>
<polygon fill="black" stroke="black" points="335.39,-172.5 345.39,-169 335.39,-165.5 335.39,-172.5"/>
</g>
</g>
</svg>
