<?xml version="1.0" encoding="UTF-8" standalone="no"?>
<!DOCTYPE svg PUBLIC "-//W3C//DTD SVG 1.1//EN"
 "http://www.w3.org/Graphics/SVG/1.1/DTD/svg11.dtd">
<!-- Generated by graphviz version 2.47.0 (20210316.0004)
 -->
<!-- Title: dependencies Pages: 1 -->
<svg width="504pt" height="211pt"
 viewBox="0.00 0.00 504.00 211.00" xmlns="http://www.w3.org/2000/svg" xmlns:xlink="http://www.w3.org/1999/xlink">
<g id="graph0" class="graph" transform="scale(1 1) rotate(0) translate(4 207)">
<title>dependencies</title>
<polygon fill="white" stroke="transparent" points="-4,4 -4,-207 500,-207 500,4 -4,4"/>
<text text-anchor="start" x="227.01" y="-42.4" font-family="Times-12" font-weight="bold" font-size="14.00">Legend</text>
<polygon fill="#ffffb3" stroke="transparent" points="14,-10 14,-30 34,-30 34,-10 14,-10"/>
<text text-anchor="start" x="37.63" y="-15.4" font-family="Times-12" font-size="14.00"> &#160;Declarations</text>
<polygon fill="#8dd3c7" stroke="transparent" points="127,-10 127,-30 147,-30 147,-10 127,-10"/>
<text text-anchor="start" x="150.73" y="-15.4" font-family="Times-12" font-size="14.00"> &#160;Module</text>
<polygon fill="#80b1d3" stroke="transparent" points="213,-10 213,-30 233,-30 233,-10 213,-10"/>
<text text-anchor="start" x="236.78" y="-15.4" font-family="Times-12" font-size="14.00"> &#160;Bootstrap</text>
<polygon fill="#fdb462" stroke="transparent" points="310,-10 310,-30 330,-30 330,-10 310,-10"/>
<text text-anchor="start" x="333.67" y="-15.4" font-family="Times-12" font-size="14.00"> &#160;Providers</text>
<polygon fill="#fb8072" stroke="transparent" points="406,-10 406,-30 426,-30 426,-10 406,-10"/>
<text text-anchor="start" x="429.73" y="-15.4" font-family="Times-12" font-size="14.00"> &#160;Exports</text>
<g id="clust1" class="cluster">
<title>cluster_EntriesModule</title>
<polygon fill="none" stroke="black" stroke-dasharray="1,5" points="108,-70 108,-195 388,-195 388,-70 108,-70"/>
</g>
<g id="clust3" class="cluster">
<title>cluster_EntriesModule_imports</title>
<polygon fill="none" stroke="black" points="116,-78 116,-130 380,-130 380,-78 116,-78"/>
</g>
<!-- DailyModule -->
<g id="node1" class="node">
<title>DailyModule</title>
<polygon fill="#8dd3c7" stroke="black" points="372.15,-122 369.15,-126 348.15,-126 345.15,-122 281.85,-122 281.85,-86 372.15,-86 372.15,-122"/>
<text text-anchor="middle" x="327" y="-99.8" font-family="Times,serif" font-size="14.00">DailyModule</text>
</g>
<!-- EntriesModule -->
<g id="node3" class="node">
<title>EntriesModule</title>
<polygon fill="#8dd3c7" stroke="black" points="309.7,-187 306.7,-191 285.7,-191 282.7,-187 210.3,-187 210.3,-151 309.7,-151 309.7,-187"/>
<text text-anchor="middle" x="260" y="-164.8" font-family="Times,serif" font-size="14.00">EntriesModule</text>
</g>
<!-- DailyModule&#45;&gt;EntriesModule -->
<g id="edge1" class="edge">
<title>DailyModule&#45;&gt;EntriesModule</title>
<path fill="none" stroke="black" d="M295.64,-122.11C295.64,-122.11 295.64,-140.99 295.64,-140.99"/>
<polygon fill="black" stroke="black" points="292.14,-140.99 295.64,-150.99 299.14,-140.99 292.14,-140.99"/>
</g>
<!-- JournalSharedModule -->
<g id="node2" class="node">
<title>JournalSharedModule</title>
<polygon fill="#8dd3c7" stroke="black" points="263.63,-122 260.63,-126 239.63,-126 236.63,-122 124.37,-122 124.37,-86 263.63,-86 263.63,-122"/>
<text text-anchor="middle" x="194" y="-99.8" font-family="Times,serif" font-size="14.00">JournalSharedModule</text>
</g>
<!-- JournalSharedModule&#45;&gt;EntriesModule -->
<g id="edge2" class="edge">
<title>JournalSharedModule&#45;&gt;EntriesModule</title>
<path fill="none" stroke="black" d="M237.11,-122.11C237.11,-122.11 237.11,-140.99 237.11,-140.99"/>
<polygon fill="black" stroke="black" points="233.61,-140.99 237.11,-150.99 240.61,-140.99 233.61,-140.99"/>
</g>
</g>
</svg>
