<?xml version="1.0" encoding="UTF-8" standalone="no"?>
<!DOCTYPE svg PUBLIC "-//W3C//DTD SVG 1.1//EN"
 "http://www.w3.org/Graphics/SVG/1.1/DTD/svg11.dtd">
<!-- Generated by graphviz version 2.47.0 (20210316.0004)
 -->
<!-- Title: dependencies Pages: 1 -->
<svg width="504pt" height="284pt"
 viewBox="0.00 0.00 504.00 284.00" xmlns="http://www.w3.org/2000/svg" xmlns:xlink="http://www.w3.org/1999/xlink">
<g id="graph0" class="graph" transform="scale(1 1) rotate(0) translate(4 280)">
<title>dependencies</title>
<polygon fill="white" stroke="transparent" points="-4,4 -4,-280 500,-280 500,4 -4,4"/>
<text text-anchor="start" x="227.01" y="-42.4" font-family="Times-12" font-weight="bold" font-size="14.00">Legend</text>
<polygon fill="#ffffb3" stroke="transparent" points="14,-10 14,-30 34,-30 34,-10 14,-10"/>
<text text-anchor="start" x="37.63" y="-15.4" font-family="Times-12" font-size="14.00"> &#160;Declarations</text>
<polygon fill="#8dd3c7" stroke="transparent" points="127,-10 127,-30 147,-30 147,-10 127,-10"/>
<text text-anchor="start" x="150.73" y="-15.4" font-family="Times-12" font-size="14.00"> &#160;Module</text>
<polygon fill="#80b1d3" stroke="transparent" points="213,-10 213,-30 233,-30 233,-10 213,-10"/>
<text text-anchor="start" x="236.78" y="-15.4" font-family="Times-12" font-size="14.00"> &#160;Bootstrap</text>
<polygon fill="#fdb462" stroke="transparent" points="310,-10 310,-30 330,-30 330,-10 310,-10"/>
<text text-anchor="start" x="333.67" y="-15.4" font-family="Times-12" font-size="14.00"> &#160;Providers</text>
<polygon fill="#fb8072" stroke="transparent" points="406,-10 406,-30 426,-30 426,-10 406,-10"/>
<text text-anchor="start" x="429.73" y="-15.4" font-family="Times-12" font-size="14.00"> &#160;Exports</text>
<g id="clust1" class="cluster">
<title>cluster_TwoFactorAuthenticationModule</title>
<polygon fill="none" stroke="black" stroke-dasharray="1,5" points="14,-70 14,-268 482,-268 482,-70 14,-70"/>
</g>
<g id="clust6" class="cluster">
<title>cluster_TwoFactorAuthenticationModule_providers</title>
<polygon fill="none" stroke="black" points="188,-78 188,-130 474,-130 474,-78 188,-78"/>
</g>
<g id="clust4" class="cluster">
<title>cluster_TwoFactorAuthenticationModule_exports</title>
<polygon fill="none" stroke="black" points="122,-208 122,-260 338,-260 338,-208 122,-208"/>
</g>
<g id="clust3" class="cluster">
<title>cluster_TwoFactorAuthenticationModule_imports</title>
<polygon fill="none" stroke="black" points="22,-78 22,-130 180,-130 180,-78 22,-78"/>
</g>
<!-- IdentitySharedModule -->
<g id="node1" class="node">
<title>IdentitySharedModule</title>
<polygon fill="#8dd3c7" stroke="black" points="171.97,-122 168.97,-126 147.97,-126 144.97,-122 30.03,-122 30.03,-86 171.97,-86 171.97,-122"/>
<text text-anchor="middle" x="101" y="-99.8" font-family="Times,serif" font-size="14.00">IdentitySharedModule</text>
</g>
<!-- TwoFactorAuthenticationModule -->
<g id="node2" class="node">
<title>TwoFactorAuthenticationModule</title>
<polygon fill="#8dd3c7" stroke="black" points="332.18,-187 329.18,-191 308.18,-191 305.18,-187 127.82,-187 127.82,-151 332.18,-151 332.18,-187"/>
<text text-anchor="middle" x="230" y="-164.8" font-family="Times,serif" font-size="14.00">TwoFactorAuthenticationModule</text>
</g>
<!-- IdentitySharedModule&#45;&gt;TwoFactorAuthenticationModule -->
<g id="edge1" class="edge">
<title>IdentitySharedModule&#45;&gt;TwoFactorAuthenticationModule</title>
<path fill="none" stroke="black" d="M149.95,-122.11C149.95,-122.11 149.95,-140.99 149.95,-140.99"/>
<polygon fill="black" stroke="black" points="146.45,-140.99 149.95,-150.99 153.45,-140.99 146.45,-140.99"/>
</g>
<!-- AccountActivatedEventHandler  -->
<g id="node3" class="node">
<title>AccountActivatedEventHandler </title>
<polygon fill="#fb8072" stroke="black" points="329.59,-252 130.41,-252 130.41,-216 329.59,-216 329.59,-252"/>
<text text-anchor="middle" x="230" y="-229.8" font-family="Times,serif" font-size="14.00">AccountActivatedEventHandler </text>
</g>
<!-- TwoFactorAuthenticationModule&#45;&gt;AccountActivatedEventHandler  -->
<g id="edge2" class="edge">
<title>TwoFactorAuthenticationModule&#45;&gt;AccountActivatedEventHandler </title>
<path fill="none" stroke="black" stroke-dasharray="5,2" d="M230,-187.11C230,-187.11 230,-205.99 230,-205.99"/>
<polygon fill="black" stroke="black" points="226.5,-205.99 230,-215.99 233.5,-205.99 226.5,-205.99"/>
</g>
<!-- AccountActivatedEventHandler -->
<g id="node4" class="node">
<title>AccountActivatedEventHandler</title>
<ellipse fill="#fdb462" stroke="black" cx="331" cy="-104" rx="134.83" ry="18"/>
<text text-anchor="middle" x="331" y="-99.8" font-family="Times,serif" font-size="14.00">AccountActivatedEventHandler</text>
</g>
<!-- AccountActivatedEventHandler&#45;&gt;TwoFactorAuthenticationModule -->
<g id="edge3" class="edge">
<title>AccountActivatedEventHandler&#45;&gt;TwoFactorAuthenticationModule</title>
<path fill="none" stroke="black" d="M264.09,-119.73C264.09,-119.73 264.09,-140.65 264.09,-140.65"/>
<polygon fill="black" stroke="black" points="260.59,-140.65 264.09,-150.65 267.59,-140.65 260.59,-140.65"/>
</g>
</g>
</svg>
