<?xml version="1.0" encoding="UTF-8" standalone="no"?>
<!DOCTYPE svg PUBLIC "-//W3C//DTD SVG 1.1//EN"
 "http://www.w3.org/Graphics/SVG/1.1/DTD/svg11.dtd">
<!-- Generated by graphviz version 2.47.0 (20210316.0004)
 -->
<!-- Title: dependencies Pages: 1 -->
<svg width="504pt" height="211pt"
 viewBox="0.00 0.00 504.00 211.00" xmlns="http://www.w3.org/2000/svg" xmlns:xlink="http://www.w3.org/1999/xlink">
<g id="graph0" class="graph" transform="scale(1 1) rotate(0) translate(4 207)">
<title>dependencies</title>
<polygon fill="white" stroke="transparent" points="-4,4 -4,-207 500,-207 500,4 -4,4"/>
<text text-anchor="start" x="227.01" y="-42.4" font-family="Times-12" font-weight="bold" font-size="14.00">Legend</text>
<polygon fill="#ffffb3" stroke="transparent" points="14,-10 14,-30 34,-30 34,-10 14,-10"/>
<text text-anchor="start" x="37.63" y="-15.4" font-family="Times-12" font-size="14.00"> &#160;Declarations</text>
<polygon fill="#8dd3c7" stroke="transparent" points="127,-10 127,-30 147,-30 147,-10 127,-10"/>
<text text-anchor="start" x="150.73" y="-15.4" font-family="Times-12" font-size="14.00"> &#160;Module</text>
<polygon fill="#80b1d3" stroke="transparent" points="213,-10 213,-30 233,-30 233,-10 213,-10"/>
<text text-anchor="start" x="236.78" y="-15.4" font-family="Times-12" font-size="14.00"> &#160;Bootstrap</text>
<polygon fill="#fdb462" stroke="transparent" points="310,-10 310,-30 330,-30 330,-10 310,-10"/>
<text text-anchor="start" x="333.67" y="-15.4" font-family="Times-12" font-size="14.00"> &#160;Providers</text>
<polygon fill="#fb8072" stroke="transparent" points="406,-10 406,-30 426,-30 426,-10 406,-10"/>
<text text-anchor="start" x="429.73" y="-15.4" font-family="Times-12" font-size="14.00"> &#160;Exports</text>
<g id="clust1" class="cluster">
<title>cluster_ConfigurationModule</title>
<polygon fill="none" stroke="black" stroke-dasharray="1,5" points="88,-70 88,-195 408,-195 408,-70 88,-70"/>
</g>
<g id="clust3" class="cluster">
<title>cluster_ConfigurationModule_imports</title>
<polygon fill="none" stroke="black" points="96,-78 96,-130 400,-130 400,-78 96,-78"/>
</g>
<!-- DatabaseModule -->
<g id="node1" class="node">
<title>DatabaseModule</title>
<polygon fill="#8dd3c7" stroke="black" points="392.35,-122 389.35,-126 368.35,-126 365.35,-122 281.65,-122 281.65,-86 392.35,-86 392.35,-122"/>
<text text-anchor="middle" x="337" y="-99.8" font-family="Times,serif" font-size="14.00">DatabaseModule</text>
</g>
<!-- ConfigurationModule -->
<g id="node3" class="node">
<title>ConfigurationModule</title>
<polygon fill="#8dd3c7" stroke="black" points="400.09,-187 397.09,-191 376.09,-191 373.09,-187 261.91,-187 261.91,-151 400.09,-151 400.09,-187"/>
<text text-anchor="middle" x="331" y="-164.8" font-family="Times,serif" font-size="14.00">ConfigurationModule</text>
</g>
<!-- DatabaseModule&#45;&gt;ConfigurationModule -->
<g id="edge1" class="edge">
<title>DatabaseModule&#45;&gt;ConfigurationModule</title>
<path fill="none" stroke="black" d="M318.52,-122.11C318.52,-122.11 318.52,-140.99 318.52,-140.99"/>
<polygon fill="black" stroke="black" points="315.03,-140.99 318.52,-150.99 322.03,-140.99 315.03,-140.99"/>
</g>
<!-- DatabaseModule&#45;&gt;ConfigurationModule -->
<g id="edge2" class="edge">
<title>DatabaseModule&#45;&gt;ConfigurationModule</title>
<path fill="none" stroke="black" d="M355.48,-122.11C355.48,-122.11 355.48,-140.99 355.48,-140.99"/>
<polygon fill="black" stroke="black" points="351.98,-140.99 355.48,-150.99 358.98,-140.99 351.98,-140.99"/>
</g>
<!-- IntegrationEventsModule -->
<g id="node2" class="node">
<title>IntegrationEventsModule</title>
<polygon fill="#8dd3c7" stroke="black" points="263.57,-122 260.57,-126 239.57,-126 236.57,-122 104.43,-122 104.43,-86 263.57,-86 263.57,-122"/>
<text text-anchor="middle" x="184" y="-99.8" font-family="Times,serif" font-size="14.00">IntegrationEventsModule</text>
</g>
<!-- IntegrationEventsModule&#45;&gt;ConfigurationModule -->
<g id="edge3" class="edge">
<title>IntegrationEventsModule&#45;&gt;ConfigurationModule</title>
<path fill="none" stroke="black" d="M263.74,-104C269.18,-104 272.56,-104 272.56,-104 272.56,-104 272.56,-140.89 272.56,-140.89"/>
<polygon fill="black" stroke="black" points="269.06,-140.89 272.56,-150.89 276.06,-140.89 269.06,-140.89"/>
</g>
</g>
</svg>
