<?xml version="1.0" encoding="UTF-8" standalone="no"?>
<!DOCTYPE svg PUBLIC "-//W3C//DTD SVG 1.1//EN"
 "http://www.w3.org/Graphics/SVG/1.1/DTD/svg11.dtd">
<!-- Generated by graphviz version 2.47.0 (20210316.0004)
 -->
<!-- Title: dependencies Pages: 1 -->
<svg width="655pt" height="211pt"
 viewBox="0.00 0.00 655.00 211.00" xmlns="http://www.w3.org/2000/svg" xmlns:xlink="http://www.w3.org/1999/xlink">
<g id="graph0" class="graph" transform="scale(1 1) rotate(0) translate(4 207)">
<title>dependencies</title>
<polygon fill="white" stroke="transparent" points="-4,4 -4,-207 651,-207 651,4 -4,4"/>
<text text-anchor="start" x="302.51" y="-42.4" font-family="Times-12" font-weight="bold" font-size="14.00">Legend</text>
<polygon fill="#ffffb3" stroke="transparent" points="89.5,-10 89.5,-30 109.5,-30 109.5,-10 89.5,-10"/>
<text text-anchor="start" x="113.13" y="-15.4" font-family="Times-12" font-size="14.00"> &#160;Declarations</text>
<polygon fill="#8dd3c7" stroke="transparent" points="202.5,-10 202.5,-30 222.5,-30 222.5,-10 202.5,-10"/>
<text text-anchor="start" x="226.23" y="-15.4" font-family="Times-12" font-size="14.00"> &#160;Module</text>
<polygon fill="#80b1d3" stroke="transparent" points="288.5,-10 288.5,-30 308.5,-30 308.5,-10 288.5,-10"/>
<text text-anchor="start" x="312.28" y="-15.4" font-family="Times-12" font-size="14.00"> &#160;Bootstrap</text>
<polygon fill="#fdb462" stroke="transparent" points="385.5,-10 385.5,-30 405.5,-30 405.5,-10 385.5,-10"/>
<text text-anchor="start" x="409.17" y="-15.4" font-family="Times-12" font-size="14.00"> &#160;Providers</text>
<polygon fill="#fb8072" stroke="transparent" points="481.5,-10 481.5,-30 501.5,-30 501.5,-10 481.5,-10"/>
<text text-anchor="start" x="505.23" y="-15.4" font-family="Times-12" font-size="14.00"> &#160;Exports</text>
<g id="clust1" class="cluster">
<title>cluster_JournalModule</title>
<polygon fill="none" stroke="black" stroke-dasharray="1,5" points="8,-70 8,-195 639,-195 639,-70 8,-70"/>
</g>
<g id="clust3" class="cluster">
<title>cluster_JournalModule_imports</title>
<polygon fill="none" stroke="black" points="16,-78 16,-130 631,-130 631,-78 16,-78"/>
</g>
<!-- AuthorsModule -->
<g id="node1" class="node">
<title>AuthorsModule</title>
<polygon fill="#8dd3c7" stroke="black" points="623.15,-122 620.15,-126 599.15,-126 596.15,-122 518.85,-122 518.85,-86 623.15,-86 623.15,-122"/>
<text text-anchor="middle" x="571" y="-99.8" font-family="Times,serif" font-size="14.00">AuthorsModule</text>
</g>
<!-- JournalModule -->
<g id="node6" class="node">
<title>JournalModule</title>
<polygon fill="#8dd3c7" stroke="black" points="392.26,-187 389.26,-191 368.26,-191 365.26,-187 291.74,-187 291.74,-151 392.26,-151 392.26,-187"/>
<text text-anchor="middle" x="342" y="-164.8" font-family="Times,serif" font-size="14.00">JournalModule</text>
</g>
<!-- AuthorsModule&#45;&gt;JournalModule -->
<g id="edge1" class="edge">
<title>AuthorsModule&#45;&gt;JournalModule</title>
<path fill="none" stroke="black" d="M571,-122.28C571,-143.32 571,-175 571,-175 571,-175 402.54,-175 402.54,-175"/>
<polygon fill="black" stroke="black" points="402.54,-171.5 392.54,-175 402.54,-178.5 402.54,-171.5"/>
</g>
<!-- DailyModule -->
<g id="node2" class="node">
<title>DailyModule</title>
<polygon fill="#8dd3c7" stroke="black" points="500.15,-122 497.15,-126 476.15,-126 473.15,-122 409.85,-122 409.85,-86 500.15,-86 500.15,-122"/>
<text text-anchor="middle" x="455" y="-99.8" font-family="Times,serif" font-size="14.00">DailyModule</text>
</g>
<!-- DailyModule&#45;&gt;JournalModule -->
<g id="edge2" class="edge">
<title>DailyModule&#45;&gt;JournalModule</title>
<path fill="none" stroke="black" d="M455,-122.02C455,-139.37 455,-163 455,-163 455,-163 402.55,-163 402.55,-163"/>
<polygon fill="black" stroke="black" points="402.55,-159.5 392.55,-163 402.55,-166.5 402.55,-159.5"/>
</g>
<!-- EntriesModule -->
<g id="node3" class="node">
<title>EntriesModule</title>
<polygon fill="#8dd3c7" stroke="black" points="391.7,-122 388.7,-126 367.7,-126 364.7,-122 292.3,-122 292.3,-86 391.7,-86 391.7,-122"/>
<text text-anchor="middle" x="342" y="-99.8" font-family="Times,serif" font-size="14.00">EntriesModule</text>
</g>
<!-- EntriesModule&#45;&gt;JournalModule -->
<g id="edge3" class="edge">
<title>EntriesModule&#45;&gt;JournalModule</title>
<path fill="none" stroke="black" d="M342,-122.11C342,-122.11 342,-140.99 342,-140.99"/>
<polygon fill="black" stroke="black" points="338.5,-140.99 342,-150.99 345.5,-140.99 338.5,-140.99"/>
</g>
<!-- GoalsModule -->
<g id="node4" class="node">
<title>GoalsModule</title>
<polygon fill="#8dd3c7" stroke="black" points="274.21,-122 271.21,-126 250.21,-126 247.21,-122 181.79,-122 181.79,-86 274.21,-86 274.21,-122"/>
<text text-anchor="middle" x="228" y="-99.8" font-family="Times,serif" font-size="14.00">GoalsModule</text>
</g>
<!-- GoalsModule&#45;&gt;JournalModule -->
<g id="edge4" class="edge">
<title>GoalsModule&#45;&gt;JournalModule</title>
<path fill="none" stroke="black" d="M228,-122.02C228,-139.37 228,-163 228,-163 228,-163 281.67,-163 281.67,-163"/>
<polygon fill="black" stroke="black" points="281.67,-166.5 291.67,-163 281.67,-159.5 281.67,-166.5"/>
</g>
<!-- JournalSharedModule -->
<g id="node5" class="node">
<title>JournalSharedModule</title>
<polygon fill="#8dd3c7" stroke="black" points="163.63,-122 160.63,-126 139.63,-126 136.63,-122 24.37,-122 24.37,-86 163.63,-86 163.63,-122"/>
<text text-anchor="middle" x="94" y="-99.8" font-family="Times,serif" font-size="14.00">JournalSharedModule</text>
</g>
<!-- JournalSharedModule&#45;&gt;JournalModule -->
<g id="edge5" class="edge">
<title>JournalSharedModule&#45;&gt;JournalModule</title>
<path fill="none" stroke="black" d="M94,-122.28C94,-143.32 94,-175 94,-175 94,-175 281.51,-175 281.51,-175"/>
<polygon fill="black" stroke="black" points="281.51,-178.5 291.51,-175 281.51,-171.5 281.51,-178.5"/>
</g>
</g>
</svg>
