<?xml version="1.0" encoding="UTF-8" standalone="no"?>
<!DOCTYPE svg PUBLIC "-//W3C//DTD SVG 1.1//EN"
 "http://www.w3.org/Graphics/SVG/1.1/DTD/svg11.dtd">
<!-- Generated by graphviz version 2.47.0 (20210316.0004)
 -->
<!-- Title: dependencies Pages: 1 -->
<svg width="504pt" height="211pt"
 viewBox="0.00 0.00 504.00 211.00" xmlns="http://www.w3.org/2000/svg" xmlns:xlink="http://www.w3.org/1999/xlink">
<g id="graph0" class="graph" transform="scale(1 1) rotate(0) translate(4 207)">
<title>dependencies</title>
<polygon fill="white" stroke="transparent" points="-4,4 -4,-207 500,-207 500,4 -4,4"/>
<text text-anchor="start" x="227.01" y="-42.4" font-family="Times-12" font-weight="bold" font-size="14.00">Legend</text>
<polygon fill="#ffffb3" stroke="transparent" points="14,-10 14,-30 34,-30 34,-10 14,-10"/>
<text text-anchor="start" x="37.63" y="-15.4" font-family="Times-12" font-size="14.00"> &#160;Declarations</text>
<polygon fill="#8dd3c7" stroke="transparent" points="127,-10 127,-30 147,-30 147,-10 127,-10"/>
<text text-anchor="start" x="150.73" y="-15.4" font-family="Times-12" font-size="14.00"> &#160;Module</text>
<polygon fill="#80b1d3" stroke="transparent" points="213,-10 213,-30 233,-30 233,-10 213,-10"/>
<text text-anchor="start" x="236.78" y="-15.4" font-family="Times-12" font-size="14.00"> &#160;Bootstrap</text>
<polygon fill="#fdb462" stroke="transparent" points="310,-10 310,-30 330,-30 330,-10 310,-10"/>
<text text-anchor="start" x="333.67" y="-15.4" font-family="Times-12" font-size="14.00"> &#160;Providers</text>
<polygon fill="#fb8072" stroke="transparent" points="406,-10 406,-30 426,-30 426,-10 406,-10"/>
<text text-anchor="start" x="429.73" y="-15.4" font-family="Times-12" font-size="14.00"> &#160;Exports</text>
<g id="clust1" class="cluster">
<title>cluster_UsersModule</title>
<polygon fill="none" stroke="black" stroke-dasharray="1,5" points="12.5,-70 12.5,-195 483.5,-195 483.5,-70 12.5,-70"/>
</g>
<g id="clust3" class="cluster">
<title>cluster_UsersModule_imports</title>
<polygon fill="none" stroke="black" points="20.5,-78 20.5,-130 475.5,-130 475.5,-78 20.5,-78"/>
</g>
<!-- DatabaseModule -->
<g id="node1" class="node">
<title>DatabaseModule</title>
<polygon fill="#8dd3c7" stroke="black" points="467.85,-122 464.85,-126 443.85,-126 440.85,-122 357.15,-122 357.15,-86 467.85,-86 467.85,-122"/>
<text text-anchor="middle" x="412.5" y="-99.8" font-family="Times,serif" font-size="14.00">DatabaseModule</text>
</g>
<!-- UsersModule -->
<g id="node4" class="node">
<title>UsersModule</title>
<polygon fill="#8dd3c7" stroke="black" points="388.42,-187 385.42,-191 364.42,-191 361.42,-187 296.58,-187 296.58,-151 388.42,-151 388.42,-187"/>
<text text-anchor="middle" x="342.5" y="-164.8" font-family="Times,serif" font-size="14.00">UsersModule</text>
</g>
<!-- DatabaseModule&#45;&gt;UsersModule -->
<g id="edge1" class="edge">
<title>DatabaseModule&#45;&gt;UsersModule</title>
<path fill="none" stroke="black" d="M367.45,-122.11C367.45,-122.11 367.45,-140.99 367.45,-140.99"/>
<polygon fill="black" stroke="black" points="363.95,-140.99 367.45,-150.99 370.95,-140.99 363.95,-140.99"/>
</g>
<!-- DatabaseModule&#45;&gt;UsersModule -->
<g id="edge2" class="edge">
<title>DatabaseModule&#45;&gt;UsersModule</title>
<path fill="none" stroke="black" d="M377.83,-122.11C377.83,-122.11 377.83,-140.99 377.83,-140.99"/>
<polygon fill="black" stroke="black" points="374.33,-140.99 377.83,-150.99 381.33,-140.99 374.33,-140.99"/>
</g>
<!-- HealthCheckModule -->
<g id="node2" class="node">
<title>HealthCheckModule</title>
<polygon fill="#8dd3c7" stroke="black" points="338.63,-122 335.63,-126 314.63,-126 311.63,-122 206.37,-122 206.37,-86 338.63,-86 338.63,-122"/>
<text text-anchor="middle" x="272.5" y="-99.8" font-family="Times,serif" font-size="14.00">HealthCheckModule</text>
</g>
<!-- HealthCheckModule&#45;&gt;UsersModule -->
<g id="edge3" class="edge">
<title>HealthCheckModule&#45;&gt;UsersModule</title>
<path fill="none" stroke="black" d="M317.8,-122.11C317.8,-122.11 317.8,-140.99 317.8,-140.99"/>
<polygon fill="black" stroke="black" points="314.3,-140.99 317.8,-150.99 321.3,-140.99 314.3,-140.99"/>
</g>
<!-- IntegrationEventsModule -->
<g id="node3" class="node">
<title>IntegrationEventsModule</title>
<polygon fill="#8dd3c7" stroke="black" points="188.07,-122 185.07,-126 164.07,-126 161.07,-122 28.93,-122 28.93,-86 188.07,-86 188.07,-122"/>
<text text-anchor="middle" x="108.5" y="-99.8" font-family="Times,serif" font-size="14.00">IntegrationEventsModule</text>
</g>
<!-- IntegrationEventsModule&#45;&gt;UsersModule -->
<g id="edge4" class="edge">
<title>IntegrationEventsModule&#45;&gt;UsersModule</title>
<path fill="none" stroke="black" d="M108.5,-122.11C108.5,-141.34 108.5,-169 108.5,-169 108.5,-169 286.55,-169 286.55,-169"/>
<polygon fill="black" stroke="black" points="286.55,-172.5 296.55,-169 286.55,-165.5 286.55,-172.5"/>
</g>
</g>
</svg>
