<?xml version="1.0" encoding="UTF-8" standalone="no"?>
<!DOCTYPE svg PUBLIC "-//W3C//DTD SVG 1.1//EN"
 "http://www.w3.org/Graphics/SVG/1.1/DTD/svg11.dtd">
<!-- Generated by graphviz version 2.47.0 (20210316.0004)
 -->
<!-- Title: dependencies Pages: 1 -->
<svg width="504pt" height="211pt"
 viewBox="0.00 0.00 504.00 211.00" xmlns="http://www.w3.org/2000/svg" xmlns:xlink="http://www.w3.org/1999/xlink">
<g id="graph0" class="graph" transform="scale(1 1) rotate(0) translate(4 207)">
<title>dependencies</title>
<polygon fill="white" stroke="transparent" points="-4,4 -4,-207 500,-207 500,4 -4,4"/>
<text text-anchor="start" x="227.01" y="-42.4" font-family="Times-12" font-weight="bold" font-size="14.00">Legend</text>
<polygon fill="#ffffb3" stroke="transparent" points="14,-10 14,-30 34,-30 34,-10 14,-10"/>
<text text-anchor="start" x="37.63" y="-15.4" font-family="Times-12" font-size="14.00"> &#160;Declarations</text>
<polygon fill="#8dd3c7" stroke="transparent" points="127,-10 127,-30 147,-30 147,-10 127,-10"/>
<text text-anchor="start" x="150.73" y="-15.4" font-family="Times-12" font-size="14.00"> &#160;Module</text>
<polygon fill="#80b1d3" stroke="transparent" points="213,-10 213,-30 233,-30 233,-10 213,-10"/>
<text text-anchor="start" x="236.78" y="-15.4" font-family="Times-12" font-size="14.00"> &#160;Bootstrap</text>
<polygon fill="#fdb462" stroke="transparent" points="310,-10 310,-30 330,-30 330,-10 310,-10"/>
<text text-anchor="start" x="333.67" y="-15.4" font-family="Times-12" font-size="14.00"> &#160;Providers</text>
<polygon fill="#fb8072" stroke="transparent" points="406,-10 406,-30 426,-30 426,-10 406,-10"/>
<text text-anchor="start" x="429.73" y="-15.4" font-family="Times-12" font-size="14.00"> &#160;Exports</text>
<g id="clust1" class="cluster">
<title>cluster_AlertsModule</title>
<polygon fill="none" stroke="black" stroke-dasharray="1,5" points="12.5,-70 12.5,-195 483.5,-195 483.5,-70 12.5,-70"/>
</g>
<g id="clust3" class="cluster">
<title>cluster_AlertsModule_imports</title>
<polygon fill="none" stroke="black" points="20.5,-78 20.5,-130 475.5,-130 475.5,-78 20.5,-78"/>
</g>
<!-- DatabaseModule -->
<g id="node1" class="node">
<title>DatabaseModule</title>
<polygon fill="#8dd3c7" stroke="black" points="467.85,-122 464.85,-126 443.85,-126 440.85,-122 357.15,-122 357.15,-86 467.85,-86 467.85,-122"/>
<text text-anchor="middle" x="412.5" y="-99.8" font-family="Times,serif" font-size="14.00">DatabaseModule</text>
</g>
<!-- AlertsModule -->
<g id="node4" class="node">
<title>AlertsModule</title>
<polygon fill="#8dd3c7" stroke="black" points="389.26,-187 386.26,-191 365.26,-191 362.26,-187 295.74,-187 295.74,-151 389.26,-151 389.26,-187"/>
<text text-anchor="middle" x="342.5" y="-164.8" font-family="Times,serif" font-size="14.00">AlertsModule</text>
</g>
<!-- DatabaseModule&#45;&gt;AlertsModule -->
<g id="edge1" class="edge">
<title>DatabaseModule&#45;&gt;AlertsModule</title>
<path fill="none" stroke="black" d="M367.84,-122.11C367.84,-122.11 367.84,-140.99 367.84,-140.99"/>
<polygon fill="black" stroke="black" points="364.34,-140.99 367.84,-150.99 371.34,-140.99 364.34,-140.99"/>
</g>
<!-- DatabaseModule&#45;&gt;AlertsModule -->
<g id="edge2" class="edge">
<title>DatabaseModule&#45;&gt;AlertsModule</title>
<path fill="none" stroke="black" d="M378.61,-122.11C378.61,-122.11 378.61,-140.99 378.61,-140.99"/>
<polygon fill="black" stroke="black" points="375.11,-140.99 378.61,-150.99 382.11,-140.99 375.11,-140.99"/>
</g>
<!-- HealthCheckModule -->
<g id="node2" class="node">
<title>HealthCheckModule</title>
<polygon fill="#8dd3c7" stroke="black" points="338.63,-122 335.63,-126 314.63,-126 311.63,-122 206.37,-122 206.37,-86 338.63,-86 338.63,-122"/>
<text text-anchor="middle" x="272.5" y="-99.8" font-family="Times,serif" font-size="14.00">HealthCheckModule</text>
</g>
<!-- HealthCheckModule&#45;&gt;AlertsModule -->
<g id="edge3" class="edge">
<title>HealthCheckModule&#45;&gt;AlertsModule</title>
<path fill="none" stroke="black" d="M317.22,-122.11C317.22,-122.11 317.22,-140.99 317.22,-140.99"/>
<polygon fill="black" stroke="black" points="313.72,-140.99 317.22,-150.99 320.72,-140.99 313.72,-140.99"/>
</g>
<!-- IntegrationEventsModule -->
<g id="node3" class="node">
<title>IntegrationEventsModule</title>
<polygon fill="#8dd3c7" stroke="black" points="188.07,-122 185.07,-126 164.07,-126 161.07,-122 28.93,-122 28.93,-86 188.07,-86 188.07,-122"/>
<text text-anchor="middle" x="108.5" y="-99.8" font-family="Times,serif" font-size="14.00">IntegrationEventsModule</text>
</g>
<!-- IntegrationEventsModule&#45;&gt;AlertsModule -->
<g id="edge4" class="edge">
<title>IntegrationEventsModule&#45;&gt;AlertsModule</title>
<path fill="none" stroke="black" d="M108.5,-122.11C108.5,-141.34 108.5,-169 108.5,-169 108.5,-169 285.71,-169 285.71,-169"/>
<polygon fill="black" stroke="black" points="285.71,-172.5 295.71,-169 285.71,-165.5 285.71,-172.5"/>
</g>
</g>
</svg>
