<?xml version="1.0" encoding="UTF-8" standalone="no"?>
<!DOCTYPE svg PUBLIC "-//W3C//DTD SVG 1.1//EN"
 "http://www.w3.org/Graphics/SVG/1.1/DTD/svg11.dtd">
<!-- Generated by graphviz version 2.47.0 (20210316.0004)
 -->
<!-- Title: dependencies Pages: 1 -->
<svg width="853pt" height="284pt"
 viewBox="0.00 0.00 853.00 284.00" xmlns="http://www.w3.org/2000/svg" xmlns:xlink="http://www.w3.org/1999/xlink">
<g id="graph0" class="graph" transform="scale(1 1) rotate(0) translate(4 280)">
<title>dependencies</title>
<polygon fill="white" stroke="transparent" points="-4,4 -4,-280 849,-280 849,4 -4,4"/>
<text text-anchor="start" x="401.51" y="-42.4" font-family="Times-12" font-weight="bold" font-size="14.00">Legend</text>
<polygon fill="#ffffb3" stroke="transparent" points="188.5,-10 188.5,-30 208.5,-30 208.5,-10 188.5,-10"/>
<text text-anchor="start" x="212.13" y="-15.4" font-family="Times-12" font-size="14.00"> &#160;Declarations</text>
<polygon fill="#8dd3c7" stroke="transparent" points="301.5,-10 301.5,-30 321.5,-30 321.5,-10 301.5,-10"/>
<text text-anchor="start" x="325.23" y="-15.4" font-family="Times-12" font-size="14.00"> &#160;Module</text>
<polygon fill="#80b1d3" stroke="transparent" points="387.5,-10 387.5,-30 407.5,-30 407.5,-10 387.5,-10"/>
<text text-anchor="start" x="411.28" y="-15.4" font-family="Times-12" font-size="14.00"> &#160;Bootstrap</text>
<polygon fill="#fdb462" stroke="transparent" points="484.5,-10 484.5,-30 504.5,-30 504.5,-10 484.5,-10"/>
<text text-anchor="start" x="508.17" y="-15.4" font-family="Times-12" font-size="14.00"> &#160;Providers</text>
<polygon fill="#fb8072" stroke="transparent" points="580.5,-10 580.5,-30 600.5,-30 600.5,-10 580.5,-10"/>
<text text-anchor="start" x="604.23" y="-15.4" font-family="Times-12" font-size="14.00"> &#160;Exports</text>
<g id="clust1" class="cluster">
<title>cluster_AccountModule</title>
<polygon fill="none" stroke="black" stroke-dasharray="1,5" points="8,-70 8,-268 837,-268 837,-70 8,-70"/>
</g>
<g id="clust3" class="cluster">
<title>cluster_AccountModule_imports</title>
<polygon fill="none" stroke="black" points="671,-78 671,-130 829,-130 829,-78 671,-78"/>
</g>
<g id="clust6" class="cluster">
<title>cluster_AccountModule_providers</title>
<polygon fill="none" stroke="black" points="16,-78 16,-130 663,-130 663,-78 16,-78"/>
</g>
<g id="clust4" class="cluster">
<title>cluster_AccountModule_exports</title>
<polygon fill="none" stroke="black" points="238,-208 238,-260 724,-260 724,-208 238,-208"/>
</g>
<!-- IdentitySharedModule -->
<g id="node1" class="node">
<title>IdentitySharedModule</title>
<polygon fill="#8dd3c7" stroke="black" points="820.97,-122 817.97,-126 796.97,-126 793.97,-122 679.03,-122 679.03,-86 820.97,-86 820.97,-122"/>
<text text-anchor="middle" x="750" y="-99.8" font-family="Times,serif" font-size="14.00">IdentitySharedModule</text>
</g>
<!-- AccountModule -->
<g id="node2" class="node">
<title>AccountModule</title>
<polygon fill="#8dd3c7" stroke="black" points="536.48,-187 533.48,-191 512.48,-191 509.48,-187 429.52,-187 429.52,-151 536.48,-151 536.48,-187"/>
<text text-anchor="middle" x="483" y="-164.8" font-family="Times,serif" font-size="14.00">AccountModule</text>
</g>
<!-- IdentitySharedModule&#45;&gt;AccountModule -->
<g id="edge1" class="edge">
<title>IdentitySharedModule&#45;&gt;AccountModule</title>
<path fill="none" stroke="black" d="M697.39,-122.11C697.39,-141.34 697.39,-169 697.39,-169 697.39,-169 546.55,-169 546.55,-169"/>
<polygon fill="black" stroke="black" points="546.55,-165.5 536.55,-169 546.55,-172.5 546.55,-165.5"/>
</g>
<!-- AccountRemovalRequestedEventHandler  -->
<g id="node3" class="node">
<title>AccountRemovalRequestedEventHandler </title>
<polygon fill="#fb8072" stroke="black" points="715.53,-252 462.47,-252 462.47,-216 715.53,-216 715.53,-252"/>
<text text-anchor="middle" x="589" y="-229.8" font-family="Times,serif" font-size="14.00">AccountRemovalRequestedEventHandler </text>
</g>
<!-- AccountModule&#45;&gt;AccountRemovalRequestedEventHandler  -->
<g id="edge2" class="edge">
<title>AccountModule&#45;&gt;AccountRemovalRequestedEventHandler </title>
<path fill="none" stroke="black" stroke-dasharray="5,2" d="M499.36,-187.11C499.36,-187.11 499.36,-205.99 499.36,-205.99"/>
<polygon fill="black" stroke="black" points="495.86,-205.99 499.36,-215.99 502.86,-205.99 495.86,-205.99"/>
</g>
<!-- AccountRemovedEventHandler  -->
<g id="node4" class="node">
<title>AccountRemovedEventHandler </title>
<polygon fill="#fb8072" stroke="black" points="444.33,-252 245.67,-252 245.67,-216 444.33,-216 444.33,-252"/>
<text text-anchor="middle" x="345" y="-229.8" font-family="Times,serif" font-size="14.00">AccountRemovedEventHandler </text>
</g>
<!-- AccountModule&#45;&gt;AccountRemovedEventHandler  -->
<g id="edge3" class="edge">
<title>AccountModule&#45;&gt;AccountRemovedEventHandler </title>
<path fill="none" stroke="black" stroke-dasharray="5,2" d="M436.84,-187.11C436.84,-187.11 436.84,-205.99 436.84,-205.99"/>
<polygon fill="black" stroke="black" points="433.34,-205.99 436.84,-215.99 440.34,-205.99 433.34,-205.99"/>
</g>
<!-- AccountRemovalRequestedEventHandler -->
<g id="node5" class="node">
<title>AccountRemovalRequestedEventHandler</title>
<ellipse fill="#fdb462" stroke="black" cx="483" cy="-104" rx="172.44" ry="18"/>
<text text-anchor="middle" x="483" y="-99.8" font-family="Times,serif" font-size="14.00">AccountRemovalRequestedEventHandler</text>
</g>
<!-- AccountRemovalRequestedEventHandler&#45;&gt;AccountModule -->
<g id="edge4" class="edge">
<title>AccountRemovalRequestedEventHandler&#45;&gt;AccountModule</title>
<path fill="none" stroke="black" d="M483,-122.11C483,-122.11 483,-140.99 483,-140.99"/>
<polygon fill="black" stroke="black" points="479.5,-140.99 483,-150.99 486.5,-140.99 479.5,-140.99"/>
</g>
<!-- AccountRemovedEventHandler -->
<g id="node6" class="node">
<title>AccountRemovedEventHandler</title>
<ellipse fill="#fdb462" stroke="black" cx="158" cy="-104" rx="134.28" ry="18"/>
<text text-anchor="middle" x="158" y="-99.8" font-family="Times,serif" font-size="14.00">AccountRemovedEventHandler</text>
</g>
<!-- AccountRemovedEventHandler&#45;&gt;AccountModule -->
<g id="edge5" class="edge">
<title>AccountRemovedEventHandler&#45;&gt;AccountModule</title>
<path fill="none" stroke="black" d="M269.11,-114.16C269.11,-132.44 269.11,-169 269.11,-169 269.11,-169 419.3,-169 419.3,-169"/>
<polygon fill="black" stroke="black" points="419.3,-172.5 429.3,-169 419.3,-165.5 419.3,-172.5"/>
</g>
</g>
</svg>
