<?xml version="1.0" encoding="UTF-8" standalone="no"?>
<!DOCTYPE svg PUBLIC "-//W3C//DTD SVG 1.1//EN"
 "http://www.w3.org/Graphics/SVG/1.1/DTD/svg11.dtd">
<!-- Generated by graphviz version 2.47.0 (20210316.0004)
 -->
<!-- Title: dependencies Pages: 1 -->
<svg width="504pt" height="284pt"
 viewBox="0.00 0.00 504.00 284.00" xmlns="http://www.w3.org/2000/svg" xmlns:xlink="http://www.w3.org/1999/xlink">
<g id="graph0" class="graph" transform="scale(1 1) rotate(0) translate(4 280)">
<title>dependencies</title>
<polygon fill="white" stroke="transparent" points="-4,4 -4,-280 500,-280 500,4 -4,4"/>
<text text-anchor="start" x="227.01" y="-42.4" font-family="Times-12" font-weight="bold" font-size="14.00">Legend</text>
<polygon fill="#ffffb3" stroke="transparent" points="14,-10 14,-30 34,-30 34,-10 14,-10"/>
<text text-anchor="start" x="37.63" y="-15.4" font-family="Times-12" font-size="14.00"> &#160;Declarations</text>
<polygon fill="#8dd3c7" stroke="transparent" points="127,-10 127,-30 147,-30 147,-10 127,-10"/>
<text text-anchor="start" x="150.73" y="-15.4" font-family="Times-12" font-size="14.00"> &#160;Module</text>
<polygon fill="#80b1d3" stroke="transparent" points="213,-10 213,-30 233,-30 233,-10 213,-10"/>
<text text-anchor="start" x="236.78" y="-15.4" font-family="Times-12" font-size="14.00"> &#160;Bootstrap</text>
<polygon fill="#fdb462" stroke="transparent" points="310,-10 310,-30 330,-30 330,-10 310,-10"/>
<text text-anchor="start" x="333.67" y="-15.4" font-family="Times-12" font-size="14.00"> &#160;Providers</text>
<polygon fill="#fb8072" stroke="transparent" points="406,-10 406,-30 426,-30 426,-10 406,-10"/>
<text text-anchor="start" x="429.73" y="-15.4" font-family="Times-12" font-size="14.00"> &#160;Exports</text>
<g id="clust1" class="cluster">
<title>cluster_JournalSharedModule</title>
<polygon fill="none" stroke="black" stroke-dasharray="1,5" points="12.5,-70 12.5,-268 483.5,-268 483.5,-70 12.5,-70"/>
</g>
<g id="clust3" class="cluster">
<title>cluster_JournalSharedModule_imports</title>
<polygon fill="none" stroke="black" points="20.5,-78 20.5,-130 475.5,-130 475.5,-78 20.5,-78"/>
</g>
<g id="clust4" class="cluster">
<title>cluster_JournalSharedModule_exports</title>
<polygon fill="none" stroke="black" points="96.5,-208 96.5,-260 406.5,-260 406.5,-208 96.5,-208"/>
</g>
<!-- DatabaseModule -->
<g id="node1" class="node">
<title>DatabaseModule</title>
<polygon fill="#8dd3c7" stroke="black" points="467.85,-122 464.85,-126 443.85,-126 440.85,-122 357.15,-122 357.15,-86 467.85,-86 467.85,-122"/>
<text text-anchor="middle" x="412.5" y="-99.8" font-family="Times,serif" font-size="14.00">DatabaseModule</text>
</g>
<!-- JournalSharedModule -->
<g id="node4" class="node">
<title>JournalSharedModule</title>
<polygon fill="#8dd3c7" stroke="black" points="376.13,-187 373.13,-191 352.13,-191 349.13,-187 236.87,-187 236.87,-151 376.13,-151 376.13,-187"/>
<text text-anchor="middle" x="306.5" y="-164.8" font-family="Times,serif" font-size="14.00">JournalSharedModule</text>
</g>
<!-- DatabaseModule&#45;&gt;JournalSharedModule -->
<g id="edge1" class="edge">
<title>DatabaseModule&#45;&gt;JournalSharedModule</title>
<path fill="none" stroke="black" d="M369.9,-122.11C369.9,-122.11 369.9,-140.99 369.9,-140.99"/>
<polygon fill="black" stroke="black" points="366.4,-140.99 369.9,-150.99 373.4,-140.99 366.4,-140.99"/>
</g>
<!-- DatabaseModule&#45;&gt;JournalSharedModule -->
<g id="edge2" class="edge">
<title>DatabaseModule&#45;&gt;JournalSharedModule</title>
<path fill="none" stroke="black" d="M363.49,-122.11C363.49,-122.11 363.49,-140.99 363.49,-140.99"/>
<polygon fill="black" stroke="black" points="359.99,-140.99 363.49,-150.99 366.99,-140.99 359.99,-140.99"/>
</g>
<!-- HealthCheckModule -->
<g id="node2" class="node">
<title>HealthCheckModule</title>
<polygon fill="#8dd3c7" stroke="black" points="338.63,-122 335.63,-126 314.63,-126 311.63,-122 206.37,-122 206.37,-86 338.63,-86 338.63,-122"/>
<text text-anchor="middle" x="272.5" y="-99.8" font-family="Times,serif" font-size="14.00">HealthCheckModule</text>
</g>
<!-- HealthCheckModule&#45;&gt;JournalSharedModule -->
<g id="edge3" class="edge">
<title>HealthCheckModule&#45;&gt;JournalSharedModule</title>
<path fill="none" stroke="black" d="M287.75,-122.11C287.75,-122.11 287.75,-140.99 287.75,-140.99"/>
<polygon fill="black" stroke="black" points="284.25,-140.99 287.75,-150.99 291.25,-140.99 284.25,-140.99"/>
</g>
<!-- IntegrationEventsModule -->
<g id="node3" class="node">
<title>IntegrationEventsModule</title>
<polygon fill="#8dd3c7" stroke="black" points="188.07,-122 185.07,-126 164.07,-126 161.07,-122 28.93,-122 28.93,-86 188.07,-86 188.07,-122"/>
<text text-anchor="middle" x="108.5" y="-99.8" font-family="Times,serif" font-size="14.00">IntegrationEventsModule</text>
</g>
<!-- IntegrationEventsModule&#45;&gt;JournalSharedModule -->
<g id="edge4" class="edge">
<title>IntegrationEventsModule&#45;&gt;JournalSharedModule</title>
<path fill="none" stroke="black" d="M146.12,-122.11C146.12,-141.34 146.12,-169 146.12,-169 146.12,-169 226.62,-169 226.62,-169"/>
<polygon fill="black" stroke="black" points="226.62,-172.5 236.62,-169 226.62,-165.5 226.62,-172.5"/>
</g>
<!-- DatabaseModule  -->
<g id="node5" class="node">
<title>DatabaseModule </title>
<polygon fill="#fb8072" stroke="black" points="398.85,-252 284.15,-252 284.15,-216 398.85,-216 398.85,-252"/>
<text text-anchor="middle" x="341.5" y="-229.8" font-family="Times,serif" font-size="14.00">DatabaseModule </text>
</g>
<!-- JournalSharedModule&#45;&gt;DatabaseModule  -->
<g id="edge5" class="edge">
<title>JournalSharedModule&#45;&gt;DatabaseModule </title>
<path fill="none" stroke="black" stroke-dasharray="5,2" d="M330.32,-187.11C330.32,-187.11 330.32,-205.99 330.32,-205.99"/>
<polygon fill="black" stroke="black" points="326.82,-205.99 330.32,-215.99 333.82,-205.99 326.82,-205.99"/>
</g>
<!-- IntegrationEventsModule  -->
<g id="node6" class="node">
<title>IntegrationEventsModule </title>
<polygon fill="#fb8072" stroke="black" points="266.57,-252 104.43,-252 104.43,-216 266.57,-216 266.57,-252"/>
<text text-anchor="middle" x="185.5" y="-229.8" font-family="Times,serif" font-size="14.00">IntegrationEventsModule </text>
</g>
<!-- JournalSharedModule&#45;&gt;IntegrationEventsModule  -->
<g id="edge6" class="edge">
<title>JournalSharedModule&#45;&gt;IntegrationEventsModule </title>
<path fill="none" stroke="black" stroke-dasharray="5,2" d="M251.74,-187.11C251.74,-187.11 251.74,-205.99 251.74,-205.99"/>
<polygon fill="black" stroke="black" points="248.24,-205.99 251.74,-215.99 255.24,-205.99 248.24,-205.99"/>
</g>
</g>
</svg>
