<?xml version="1.0" encoding="UTF-8" standalone="no"?>
<!DOCTYPE svg PUBLIC "-//W3C//DTD SVG 1.1//EN"
 "http://www.w3.org/Graphics/SVG/1.1/DTD/svg11.dtd">
<!-- Generated by graphviz version 2.47.0 (20210316.0004)
 -->
<!-- Title: dependencies Pages: 1 -->
<svg width="504pt" height="284pt"
 viewBox="0.00 0.00 504.00 284.00" xmlns="http://www.w3.org/2000/svg" xmlns:xlink="http://www.w3.org/1999/xlink">
<g id="graph0" class="graph" transform="scale(1 1) rotate(0) translate(4 280)">
<title>dependencies</title>
<polygon fill="white" stroke="transparent" points="-4,4 -4,-280 500,-280 500,4 -4,4"/>
<text text-anchor="start" x="227.01" y="-42.4" font-family="Times-12" font-weight="bold" font-size="14.00">Legend</text>
<polygon fill="#ffffb3" stroke="transparent" points="14,-10 14,-30 34,-30 34,-10 14,-10"/>
<text text-anchor="start" x="37.63" y="-15.4" font-family="Times-12" font-size="14.00"> &#160;Declarations</text>
<polygon fill="#8dd3c7" stroke="transparent" points="127,-10 127,-30 147,-30 147,-10 127,-10"/>
<text text-anchor="start" x="150.73" y="-15.4" font-family="Times-12" font-size="14.00"> &#160;Module</text>
<polygon fill="#80b1d3" stroke="transparent" points="213,-10 213,-30 233,-30 233,-10 213,-10"/>
<text text-anchor="start" x="236.78" y="-15.4" font-family="Times-12" font-size="14.00"> &#160;Bootstrap</text>
<polygon fill="#fdb462" stroke="transparent" points="310,-10 310,-30 330,-30 330,-10 310,-10"/>
<text text-anchor="start" x="333.67" y="-15.4" font-family="Times-12" font-size="14.00"> &#160;Providers</text>
<polygon fill="#fb8072" stroke="transparent" points="406,-10 406,-30 426,-30 426,-10 406,-10"/>
<text text-anchor="start" x="429.73" y="-15.4" font-family="Times-12" font-size="14.00"> &#160;Exports</text>
<g id="clust1" class="cluster">
<title>cluster_JournalSharedModule</title>
<polygon fill="none" stroke="black" stroke-dasharray="1,5" points="85,-70 85,-268 411,-268 411,-70 85,-70"/>
</g>
<g id="clust4" class="cluster">
<title>cluster_JournalSharedModule_exports</title>
<polygon fill="none" stroke="black" points="93,-208 93,-260 403,-260 403,-208 93,-208"/>
</g>
<g id="clust3" class="cluster">
<title>cluster_JournalSharedModule_imports</title>
<polygon fill="none" stroke="black" points="93,-78 93,-130 397,-130 397,-78 93,-78"/>
</g>
<!-- DatabaseModule -->
<g id="node1" class="node">
<title>DatabaseModule</title>
<polygon fill="#8dd3c7" stroke="black" points="389.35,-122 386.35,-126 365.35,-126 362.35,-122 278.65,-122 278.65,-86 389.35,-86 389.35,-122"/>
<text text-anchor="middle" x="334" y="-99.8" font-family="Times,serif" font-size="14.00">DatabaseModule</text>
</g>
<!-- JournalSharedModule -->
<g id="node3" class="node">
<title>JournalSharedModule</title>
<polygon fill="#8dd3c7" stroke="black" points="402.63,-187 399.63,-191 378.63,-191 375.63,-187 263.37,-187 263.37,-151 402.63,-151 402.63,-187"/>
<text text-anchor="middle" x="333" y="-164.8" font-family="Times,serif" font-size="14.00">JournalSharedModule</text>
</g>
<!-- DatabaseModule&#45;&gt;JournalSharedModule -->
<g id="edge1" class="edge">
<title>DatabaseModule&#45;&gt;JournalSharedModule</title>
<path fill="none" stroke="black" d="M315.52,-122.11C315.52,-122.11 315.52,-140.99 315.52,-140.99"/>
<polygon fill="black" stroke="black" points="312.03,-140.99 315.52,-150.99 319.03,-140.99 312.03,-140.99"/>
</g>
<!-- DatabaseModule&#45;&gt;JournalSharedModule -->
<g id="edge2" class="edge">
<title>DatabaseModule&#45;&gt;JournalSharedModule</title>
<path fill="none" stroke="black" d="M352.48,-122.11C352.48,-122.11 352.48,-140.99 352.48,-140.99"/>
<polygon fill="black" stroke="black" points="348.98,-140.99 352.48,-150.99 355.98,-140.99 348.98,-140.99"/>
</g>
<!-- IntegrationEventsModule -->
<g id="node2" class="node">
<title>IntegrationEventsModule</title>
<polygon fill="#8dd3c7" stroke="black" points="260.57,-122 257.57,-126 236.57,-126 233.57,-122 101.43,-122 101.43,-86 260.57,-86 260.57,-122"/>
<text text-anchor="middle" x="181" y="-99.8" font-family="Times,serif" font-size="14.00">IntegrationEventsModule</text>
</g>
<!-- IntegrationEventsModule&#45;&gt;JournalSharedModule -->
<g id="edge3" class="edge">
<title>IntegrationEventsModule&#45;&gt;JournalSharedModule</title>
<path fill="none" stroke="black" d="M260.57,-104C266.88,-104 270.88,-104 270.88,-104 270.88,-104 270.88,-140.89 270.88,-140.89"/>
<polygon fill="black" stroke="black" points="267.38,-140.89 270.88,-150.89 274.38,-140.89 267.38,-140.89"/>
</g>
<!-- DatabaseModule  -->
<g id="node4" class="node">
<title>DatabaseModule </title>
<polygon fill="#fb8072" stroke="black" points="395.35,-252 280.65,-252 280.65,-216 395.35,-216 395.35,-252"/>
<text text-anchor="middle" x="338" y="-229.8" font-family="Times,serif" font-size="14.00">DatabaseModule </text>
</g>
<!-- JournalSharedModule&#45;&gt;DatabaseModule  -->
<g id="edge4" class="edge">
<title>JournalSharedModule&#45;&gt;DatabaseModule </title>
<path fill="none" stroke="black" stroke-dasharray="5,2" d="M338,-187.11C338,-187.11 338,-205.99 338,-205.99"/>
<polygon fill="black" stroke="black" points="334.5,-205.99 338,-215.99 341.5,-205.99 334.5,-205.99"/>
</g>
<!-- IntegrationEventsModule  -->
<g id="node5" class="node">
<title>IntegrationEventsModule </title>
<polygon fill="#fb8072" stroke="black" points="263.07,-252 100.93,-252 100.93,-216 263.07,-216 263.07,-252"/>
<text text-anchor="middle" x="182" y="-229.8" font-family="Times,serif" font-size="14.00">IntegrationEventsModule </text>
</g>
<!-- JournalSharedModule&#45;&gt;IntegrationEventsModule  -->
<g id="edge5" class="edge">
<title>JournalSharedModule&#45;&gt;IntegrationEventsModule </title>
<path fill="none" stroke="black" stroke-dasharray="5,2" d="M272.06,-187.11C272.06,-206.34 272.06,-234 272.06,-234 272.06,-234 271.16,-234 271.16,-234"/>
<polygon fill="black" stroke="black" points="273.09,-230.5 263.09,-234 273.09,-237.5 273.09,-230.5"/>
</g>
</g>
</svg>
